<mxfile host="65bd71144e" modified="2020-11-07T07:27:32.815Z" agent="5.0 (Macintosh; Intel Mac OS X 10_15_5) AppleWebKit/537.36 (KHTML, like Gecko) Code/1.48.2 Chrome/78.0.3904.130 Electron/7.3.2 Safari/537.36" version="13.6.5" etag="rNwKKt_gadfkYuFO-TIH">
    <diagram id="7D6OMb-DoMjREojUunF_" name="Page-1">
        <mxGraphModel dx="2953" dy="3540" grid="1" gridSize="10" guides="1" tooltips="1" connect="1" arrows="1" fold="1" page="1" pageScale="1" pageWidth="3300" pageHeight="4681" math="0" shadow="0">
            <root>
                <mxCell id="0"/>
                <mxCell id="1" parent="0"/>
                <mxCell id="18" value="Text" style="text;html=1;align=center;verticalAlign=middle;resizable=0;points=[];autosize=1;" vertex="1" parent="1">
                    <mxGeometry x="480" y="3640" width="40" height="20" as="geometry"/>
                </mxCell>
                <mxCell id="43" value="" style="group" vertex="1" connectable="0" parent="1">
                    <mxGeometry x="460" y="1430" width="2320" height="980" as="geometry"/>
                </mxCell>
                <mxCell id="4" value="" style="shape=image;verticalLabelPosition=bottom;labelBackgroundColor=#ffffff;verticalAlign=top;aspect=fixed;imageAspect=0;image=https://www.gstatic.com/mobilesdk/200707_mobilesdk/trigger_email_120@2x.png;" vertex="1" parent="43">
                    <mxGeometry x="1250" y="383.9999999999998" width="240" height="240" as="geometry"/>
                </mxCell>
                <mxCell id="8" value="" style="shape=image;verticalLabelPosition=bottom;labelBackgroundColor=#ffffff;verticalAlign=top;aspect=fixed;imageAspect=0;image=data:image/png,iVBORw0KGgoAAAANSUhEUgAAAYAAAAGACAYAAACkx7W/AAAACXBIWXMAAAsTAAALEwEAmpwYAAAgAElEQVR4nO29ebwcVZn//znV692y7/tGErawJGQlgCC4sYgDLozOOPN1/Ol8RQdNovh1ZnrmOw6QBEERRx3cUBYBcdhFlEUgEAW/oixBliSSkOUmublL396qzvP7o7v6VndXL9V9qqu67/N+vS65t7vqc57L7fo8T51z6hyAYRiGYRiGYRiGYRiGYRiGYRiGYRiGYRiGYRiGYRiGYRiGYRiGYRiGYRiGYRiGYRiGYRiGYRiGYRiGYRiGYRiGYRiGYRiGYRjVCK8DYOqHYtCwev0KIPgZiOD5EKIT0P8II/MtCP1e8e5njngdI8Mw/oUTQItCvzzjGCDyDIQ2sexBxvD/wbuevEoIUBNDYximReAE0ILQQ2d8AMGOn0HqQKYfSPUDMgGQBEQICI8BQmOBUBcg08/jvMdO4yTAMEwxnABaDLpvzUxEx+xBqh9I7AXIKH9waCzQNRPQMzeI9z7x2eZFyTBMK6B5HQDjkEj340gcAIb/Utn8gezdQf9rQCB4Od279rTmBMgwTKvACaCFoF+um4FMfBGSBx2clAHie4BIx+1EfMfHMMwInABaCSN4CYb3OD9PHwQy/Qvw0Lp3qw+KYZhWhRNAK2Ek3gXS6zt3+ACghW+mGP/NGYbJwmbQSujxtXWdRwSQDqT6JmHVGR9THBXDMC0KJ4AWgZ5bHoKRHOf8RMvsz1QvgMB/0XPLQ+oiYximVeEE0CociU6GTDk7h4qm/pME0r0dONjxeXWBMQzTqnACaBWG0/NAsvbji83fJHkE0IJfpfuWd6oJjGGYVoUTQKugZU6o+dhy5p99E0geCCDQ9Z+NB8UwTCvDCaBVkHptD3JVNP8cqaOAwOfo7pXl1xFiGKbt4QTQKhCtr+GY2vUS+4Guzm83EBHDMC0OJ4AWgAgClFlS7SBHZAYBI30JPbR6Xv2RMQzTynACaAV+tXwMjGT5952av0niACCiN9d3MsMwrQ4ngFbAiM4q+wRwveYPAPowYCTX0y9OP6l+EYZhWhVOAK2AnrDv/mnE/E0S+wERvq1xIYZhWg1OAK2AkTql5DUV5p/VBtIDx9KDa89WI8gwTKvACaA1KFwDSJX5myQPAoHoj3m5aIYZXXACaAUMY13+e9XmDwAyDaSOzMAjp1+iXpxhGL/CCcDn0GNnRSFTkewPbmzrm9NM9gIUuonuQMCFRhiG8SGcAPxOEtMg0+6aP5DdXjJ5aAy61/+jCw0xDONDOAH4HRpe4GgRuNqFS19KHQY07Vp67KyoCw0yDOMzOAH4nUzyRPWiZe4mSAKJgyGkjH9W3ybDMH6DE4DfkZlVagWrdCWljwIQV9Ijy8eqbZdhGL/BCcDvEJ2hUKy2Y4b3C+hdX1fXLsMwfoQTgI+hGDSQPlORWu2HZgYAGH9Lv1w3Q03bDMP4EU4Afmb5WRNgONwG0pY6ZhAN7wdk6IcKGmcYxqdwAvA1yTllF4GrmTqnj+pxwEieSw+vWdpgAAzD+BROAH5GJo9tTKDBZwcS+wEZubUxEYZh/AonAD8jMyvqP1nBg2NGEjDip9B9a9c0LsYwjN/gBOBr5Nrqx9ih8KnhxH4gFL6VF4pjmPaDE4CfIaOOOwDFS0bINJA+Og8PnX6+WmGGYbyGE4BPoYfP64JMOfz7qF4vKKeX6AVE8EcU488Lw7QTfEH7FRqcDiPt5ATVAVi+14H04fFYte7vFDfCMIyHcALwKzJ5TO0Hu2n+OZKHAARvpOeWhxQ3xjCMR3AC8CsZ4+TaDmyC+QMAJJDqjeBgZJPiBhmG8QhOAH6F9NU1HKS60cpvp44AIvDv9NhZ3YobZhjGAzgB+BVpVFkErsnmbx6TOKAhKa9W3DjDMB7Ac7t9CD23PITdfWnoiXJHqG7R2eE9iwAjOVlc8PwhxYEwDNNE+A7AjxzqnFR+ETiPzR8AEgeAYNd3FQfCMEyT4QTgR5LJ+fbbQPrA/AFAHwRk5mJ6eOV8tfEwDNNMOAH4ES1zQumLPjF/k8Q+QHbcoiYWhmG8gBOAH6H08qIXVDfQuISRAPThNfTAaTVOV2UYxm9wAvAjhDOsP6gWV0ZyP6B13q5OkGGYZsIJwGcQQUBmcpuw+Nj8AcBIAZmBJXTPunPVCjMM0ww4AfiNXy0fk50B5HPzp5xe8iAQCf2Yl4tmmNYj6HUATBFGdBakk0XgasEl8wcAmQFSR6biwTUfBp65TW1D7kAEgUfPnoFkehYAQAT34j2P7xVCedZlGF/DVZvPoPtP/QDib/9MoaI6KaDQ/E1EABi7eAgRMV684/FGNzF2DXpueQi9nZ+BCP4bhOgpfJPikOkYpiS/LlY8n/EoRIZpKtwF5DcyqVPUiTXB/AGADCDZ241k8nK1Dapj8O61U3B4zOvQQl8DGT1ID2RXOE0eAtIDABldCES24FDPm3TPqqlex8swzYDvAHwG/Xzpr5E+erYCpcYlCuSq6Qlg3GIdA/oY8cFnyq1h4Qn0vXU9mBnZD5npRPIAkD6K0gftBBAZB0SnAVowhVR6srjo6UFPAmaYJsF3AH6D5DoFIo1LFMjVulDcwSC6tH9T27gCZgbuhx7vxMBr2RVNyz1lneoDBv4MZIYiCGsPNj1OhmkynAB8BD12VhQyFWlQRU0weTkHeqk+QGAj/fzkcWqDqJ/kT1e/E4Z+BoZ2AlTD8AQZwNAuQGZOp/tXvcP1ABnGQzgB+Inh9FRn20AW46H5myQPAJExN6oNpD4oBi0yNvI9xHeXqfrLIYH4bkDj6a1Me8MJwE9QakH9Ju4D8wdyA6qZy+jBVbPUBuQc48Q1FyHVN6f8yqp25H5vIw2k+2bi/jUXuRIcw/gATgB+glIn1nmi4jgULBQnIj9UEkudPHYWgoHO8HeROOjgrKLfO9kLBAPfoxhfJ0x7wh9sP6EbNWwDWYzPzB8A9GHASJ5DD646rnGx+lj3ubUfRerQpJr6/QHY/n8kA0genoCVaz6qNDiG8QmcAHyFXO/seB+av0liH6BFPXkymGLHh0PR0DeRrHXDsgq/d+oQIILfosfO4qfmmbaDE4BPoBg0SN1Bv7mPzR8wF4pbRg+uVjCt1RmZ5WM+jdTBLpBRw9FVfm+SQOJAF5Lpf1QSHMP4CE4AfmH5WRNqH6z0uflnRYHEQUCL3NrMmTRvXTGrIxQMbUbycA1H1/h7p44AhK304KIGp+gyjL/gBOAbknNq669uEfMHAJkGUn1z8FDzZtLMOHveF5HYH64+7dPJ701AsjcEmnJlI7ExjN/gBOAXZPLY6ge1kPmbJHsBEf5+M2bS7PzByeO0AP4Zqb4qR9bxe6f6ANC/0GNnddcTG8P4EU4AfkFmVlQ+oAXNH8g+fZs6NB6rTv+ECw0WMG9S978heUCr/P+qgecskgcEkpn/rFOAYXwHJwDfINeWf69Fzd8kdQiAuIHuOD7sQsMAgP3/tWwKNPnZytV/g793uh+QxuX0izUTGhNiGH/ACcAvkF7mDqDFzR/IzaQ5GEbXWNf60KfOG38tkvsrBaGmocR+wAjcoEaMYbyF1znxAfTweV0Y3DFUug5QG5h/HgGMXUxI01jVyywfuXn5nPETQ7sx8HqZIxT/3j0LAEOfKS76f2+rFWaY5sJ3AH6ABqe3t/nnjh0+IBASW1VHMW5S941IlKv+Xfi9h/cBoc6b1AszTHPhBOAHZPKYwhfazfxzZI4CkJ+ku5dNURXFwB0rlghj+Hxkhmzeden3NoYBI/keenD5QhcaYJimwQnAD6T1k0Z+aFPzNxneB3SO/W9VkfR0d91k3/fv8u89vA9A9McuNMIwTYMTgB8Qem4RuDY3fwDQhwA9daGK6jl+24pTYAydDr14B8om/N4yCejxNfTQqmUuNMYwTYEXuPIDhnHmqDB/k8R+oGveLQDqWP10hI5xPT/E4J+LXm3i7504AAQW3gKgzmW824sd1yzpmXnK4suiEzsuEcHAIqEhqA8ntyX7Uve/dveDt6/4LjJex8gUwrOAPIaeWx7CrsNpGAr3Ufez+Zt0zgGgrRQX/u539ZyeuHXNmdGe5OMYesvyqge/d+csIBpZJ971u20uNN4y9D96wWfHTB/79bIHGHJ4aO/A3/e86/6fNjEspgrcBeQ1hzonOduxqgqtYP4AKLEPFOq4ta5zY9Ci48Pfx/AB66uKIitoqfohyQOAjN4yWreOvONSBDLPXXLfmOljvw7KAJleILkbSLye/UrtATKHAQ2d3bPH3h7/zUX/5nXMzAicALxmeGge4GS/2gq0iPmDCDDSoFT/oszdp73b6emppWvei8zRBZDm1FkPf2+ZAVJH5uG+1Y5/j1bnjksRuPhLH/xFsCtyPtIHgcSbQOZIdnyEjOyXMZRLCm8ARh86J3X/S/+DF7zH69iZLJwAvCagn6BEp4XMP6+aOIhAuPPHMQcLxd1xKQLhseH/Htnq0Qe/d7IXCAV/OJruAigG7f1fvOShYGfwnUj+BdDtluCw/H8kA0gfBDIH0TOn+86dsXnRpgXLlIUTgNdUXQSuBlrI/E1pAkBSh0wdnvTlk1f9ba0SF/31GR8S6cPTIDPuxFiPJulA8vAUPLjmw+rj8R8Ug6aff8lDoa7wuUj+JVvxlx5lf7LeB0EDXRNWnvgOV4NkaoITgOeQw20gi0/3iQlWlaRCZcp9JQ5B0yI31rJQHH1yeSgcFTci0etOjI1opnoBaN+hOxBQFo4PMc0/2BU+L2v+duNXVf4/Zg4hPCFQc9Jn3IMTgIcQQUDqNewDUF5APS5W/jn5rPebvSUGKNnbkQ6O+Xw1mcx7Ip9Asndc7Ru9OwqywdMlkOrtQcfqf1ATj//Imv+lDzZk/gBABqLRJN8B+ABOAF7yq+Vj6p4B1ILmX1L9U/ZtSh6GFgj9R+81S3rKynxjUSQUDX4NyV71Mar6vVOHgYB2vZvLXnsFxaDpF1z6QLAr9K6GzD9PcgqPA3gPJwAvSWizQHU8G9OC5m82ka/+CdmnUCh7nBzeHxi7cFLZzVbk/KmfR2J/tPpWj46DVKuVOBBBV/cXFIp6Tt78O0PvVmP+AGQS45YsnaYkQKZuOAF4iSheBK4GWtD8zYK/+AeikddFug8I4jODN5cuFPfaN1aN0QLi/yJ1RHWQiuUot3Wk9n/p4fO61Ip7gyvmDwCkQ3ZK559/RimcALxEl8sdHd+C5g/kHjcvW/3nEgEBFN+PUOeY/yqWW7Aw+BUkDwSUV+sqyf/OBCT2B2AMxtQ20HwoBk1/3yX3Kzf/HJEeqWYKNFM3nAA8RV9T86Etav5U/IOZCMim9dQgBIwP9P94zSLzpf6bjp+gCdpYfaN3R0Eq1ELp3yZ9FJDGBnpk+Vi1DTWP3Gyfe4Pd4fe4Yf4AEI7itIYEmIbhBOAlUq6r6bgWNX8gV+gXVf+iqPq3hkOJfYh0hH5ont89feLm7GYvquJt0qJ7if1AOnSd2saaQ978u8Lvc8v8ASAQMWovgBhXGDVPLvoNeuysKA69mbC/uKwHtq75k6WpbDePKDB8siYAKfKJQnTPRWqQVmVCmb0TJ3XswcBrqoJUpGPKVdHrWQjIwDRx0fYDlQ/0D80yfwBAoAv46hNBcScMNYKMU/gOwCuG01NH1rIpQwubfx5R1PefC4Fsqn9zXICG9yE8rutHEyaO+Vb5rR4dB6lIx5SrQS+xHwgGv6O2YfdoqvkDgExjz9ln80wgD+EE4BVyeH7Fi6kdzJ8Kv2yPJAC5OwMybxn0FLTkwFI5mLwQGRX7x3tg/gCgxwEjcRE9tHqe2gDUkzP/e5pm/gBAaUSmiwVqRRkncALwCtLLbyLSBuZv9X5Uqv5NcoMF+eWCDuxDZt9+BQulemT+Jol9AAI/UBuEWigGLZ01//ObZv45vY5OHKdYmHEAJwCvkPoq29fbwPzNJvPTP83qv/gUS/VvXShO6ASZyoCSw8j0NxRkIyfbyNWhZySBTPwsuve049UGo4bcVM+fhz0wfwAIdkieCeQhnAC8guQZpa+1h/mXq/5Lpn/m+/4pf1cgANDgiL4xAFBdQ4Q+MH+TxH4gEP6JumDUkOv2uTvYHb7QC/MHgGC0sW1BmcbgBOABFIMGQ59d+GJ7mL/ZrF31LyzvZ18UIGtGIEDLUMFabyRRx12Aj8wfAIwUoA+cTL9Ys1JNQI2TN/+u8EVemT8ABEPy2Dsube8VVP0MJwAvWLZyfMEicG1k/iOVP1C5+s9N+REjYwJCAHKotA1jAA4WAPWZ+ZskDgCk3aJGrDH8Yv7ZlzPaqWefN1FxY0yNcALwgqicA+QcrY3M39p0fnkH8zXrlE8CCLkBX2v1nyb77h4CMkcdNK4KlX8bmQFSfYvof1a/U52ocygGLf0+n5g/AMg0xk3T5ylukKkRTgBekE5l9wBoM/M3/Tzb1VNY/Vv/zXcH1VD9mxhDWQ+t3LpC3PjbJA4C4cCPvNo6Mmv+f/WzcLdPzD/3fiAa4JlAHsEJwBP0Fe1m/tbmK1f/lO8OKqj+U7LyYC+V2XbW2rAq3PrbkA4kD83AA6svdqGByq3HoKXf+4G7wt2R9/vH/LOEOtKnKG6YqRFOAF5gGGvVi3pr/nk/zw3uFlf/+Z9oZDVQ68wfY6h6G8YwbB6ebhHzN0kdArTATRRr3rUXM82/J3qx38wfACI8E8gzOAF4gtH4RvAFeFz5F4VAZj+Qpco3Z/uUTAHNVf81PfBFgH6k6AWVNOOujAwgcXA8Vq76uAuNlRCLQbvyvRff6VfzB4BgVJxCvC6ZJ3ACaDL08HldkCmF0968N3+rqVOuwh9ZAdRyRAPVv4mRAGSyoFU1NLNLLn0YIO1Gem55yIVGrYis+Xd8wK/mnz0lE9p13Vktu3R2K8MJoNnQ4HQYVRaBq11MkY5Vsp4L2DT7XBFnqf6FZbaPbfWfkI5/jcyRFjZ/ACAJJA9GsS90uQsNm4jkby++y/fmDwAyjc7ZgTlqY2FqgRNAs0nFF1U/qBb8Yf4Fpm4afT4hWPuFCqt/ECAo26/vNEaZBIy441DL6qmnBs3UEUCja+gHrmyMLlK/u/iOSCuYPwBAItIRXKosFKZmOAE0GzJOUiDSuESJZJ2aZat/yieDgnAtM4WE0+rfEqNe03MBteupo1ZNAhIHgpg67SuKAxCp3118R7i745LWMP8s4e7MqQoCYRzCCaDZyEyDuyD5x/zLV//Z2l+Yw3o0stmLmRA0AmSi/hhlCtAdjB1U01ODQ83s1pFfpnvW9SgKQKR+d/FPW838ASAUhW+WyRhNcAJoNkTrGzhZXRx5yQY0rdV/fuYPFSSDfMhi5HsiAHEH1X+ZGPUjqO9/iR/M3yR5QCBoXK0gAJH67cW3h7s7Lm018weAQIjsV8dlXIUTQBOh55aHQOkJdZ6tNhig8crf/ME0dkmlURZs9pI9NiDNmTyNxUg6oDvdL8ZP5g8A6QFA6v9I9y2f1EAAIrH94tvDPR0fbEXzBwAhMp0vxY7vVirKVIUTQDM51DmpYBG4mvGP+QP2G72PZIFCsx85YaRZite4y0sNMep9qP1/j9/M3ySxD9CiN9Z5tkhsv/j26JjWNX8AgExh/AkzZ6kXZirBCaCZxONzQU63uPKX+dtV/5Tbyau26p/sParOGMmocblov5o/YG4d+cHEHcudToVsD/MnAshAR5QWqxdnKsEJoJkE9BOcneAv87dK5Kt/SZbB3irVv0TBZi+qYjSOoso6Qj42/5wUDe9DJBq5ycFZ7WP+OYKRFK8J1GQ4ATQTmXKwBIT/zN/a0wMCIC0LuxUfaFf9G1RlRc/6YiQJ6OXuAlrB/AmAPgzIoXPpruW1zIcX6e1/dUs7mT8ARLuDipdIYarBCaCp1DoDyH/mn8fa5W+RLL/R+8iPslr130CMer/NXUCrmH9Ok4YPwAhHbq5ylkj/9q9+EhoT+Ug7mT8ABDrIhUUSmUpwAmgSRBAgvYZ1z31s/qbpyzJ9/vljSqt/LVNmsxdVMRKQsS4X3WrmTwKkp0CZwdOGbzmp3Jz4rPn3RC5rN/MHACEzE3bGXHkymikDJ4Bm8dCqnuozgPxr/qb3k7nUZ7nqv6jv33yvYvWvKEZjENmtI1vR/M1xlfgBBDu6f2xzVlubf/a9FDqOWzxdfaNMOTgBNAtdzq7cAe5f889qAcKyvEPZ6h+iZLOXQKXqX3GMyheKM4UVSpU1fwmQngalji7uv/nUd1nOEqntpvm/1Z7mDwBkQHRKngnURDgBNAuRPKb8m/42f7PyzypW2ug9969luWegQvWvvFKnGraOdK6pUqqi+UuApICMH0Qk2vG93KYxIv3bi28OjzHN3+4JOjeSnjf09DidKcc0QtDrAEYNUi+z2JW/zR8AIEcc32r4+THefMUvCpum7Ebv0u7RBxfM3yRzBIhMVaupQqoW8ycJEOmgxJGZ8Tmr/jb17IyzQz0dH22u+Xv3mQyGxWnqG2fKwQmgWUhpM8PB/+ZvVv5Zsy/a6rGg+h9ZDTRrYrlz7DZ6d9H8AUAOZ3tJtIg6zYZwZP6575N9iJ564k2B7qA2WswfALQQrVMfAFMO7gJqFtIo+mD73/yt5b7ZpVPS3ZOr/s3uIOvrWkqWPvjssvmbZI7YvtyQZr1Sjs1fBBFddipGm/kDQCAgZz33Sbi9UxqTgxNAE6DHzopCpizT27y/0GoQHOnZyXXvFFT/QEH1L8xDcoanwWarxyaZP5D1TMPJctM1aNYjVZf5n7wCgXHjMNrMHwAgk5i++rxp6oNh7OAE0AyG01NHtoH0yYVWWdDSrz/ShJPqH8WbvTTR/E2cLxftE/MfO0rNHwBIR+dEzFcbDFMOTgDNQA7PL3FUVbhkrIVmXzTzp+Dw0o3eNZHth3c7xmrItJMtJ31g/ieNcvPPITr14xVFwlSBE0AzIP1EP15oNoIj/1gqfvPZL/M9cznowkFgy7/WzV48Mn+TTE3LRfvE/Edrt08RHVGDZwI1CU4AzUBm1O925KKxWk2dchX+yAqg1lNKq38hLVs9emz+AECZaltHemv+UgTY/IsIRjVeE6hJcAJoBtI4Q6mem8Zq7de3bvSee69a9Z/f6N0H5m9SftMY782/46TT2PyL0IJyyR2XIqBMkCkLJwCXoRg0GPpsdYLuGmuBqZtGX6H6tw4AB8zq30fmDyC7acyAWs1iKTZ/hcgkVpx3TiNbZDI1wgnAbZatHF/bFlg14LaxFlf/RX3/eaOznJZ/m5Dd6tFn5m9i9MPyTIIfzJ+7fcoIApTG2AmCZwI1AU4AbhNJz84uUdkgTTDWkuofhdX/yM5fFpPLvalJgkz60/yB7F2APqBWszHzH8/mXyqY/y7EM4GaAicAt8kYNewBUIVmVNVOq/+ijd4x5HSv4zpibBD9aJU9CZzA5q9asOCnYDd4e8gmwAnAbSizvLHzm1D5U9Hbluq+5Gi7zV4MqayXq1yMjUsSIIHMURVadZg/NDb/8oIlr4TCWK24EcYGTgBuU7IGkAOa1J9uzuyxVv+1bvQOIqCWjd4bjLExyRFNYwCN9cjVa/4nn8bmby9o+2ogTCfTyD0o4xKcAFzHqG+j6yZdaMXVfMHMnpKDi6t/gtBr2Oi9wRgbkyzSpKKtIx1psfkrFiz7jqBUYM/X1oxX3CBTBCcAF6GHz+uCTDmfz9zsmTTCvvovSQ65Y5EzQQJAyqr/5hmWMZRdJsKZFpu/YsHKb8s0InO65ipulCmCE4CbGIenwXBYHjfzQqPSL9vqn1BU/WcP1NKkZIJT0w3L6V0Am79qwZqOiXTIpYobZorgBOAmmcwxji7IJl9oVu+vuNG7Sf4x4NwxSqp/bwxLxst4cokWm79iwZqPDHUZPBPIZTgBuAkZJ9V+bJMvtJzzi9z3tjN+8sflTC+3NSRJQCRVTKn01rCqzgiq2/x5tk8ZQUdHhzoEzwRyGU4AbiIza2o6zoMLrVz1b3YBlfT9500w95PdVo+KY3Qu6UxTDgNGubuAhsx/Apt/qaDjM4Ih4lVBXYYTgJuQXF/9GA8utArVvyg+DiJb+VsSgpa02epRdYyOJevTtN06ks1ftWCd56WjO65Z0qM0FKYATgAuQc8tD0GmJ1Q+yJsLrWr1nz9QgIhGZgnlkoasuLyymhidSdavScmiTWPY/FUL1n+qTKNj4Yw56mJhiuEE4BaHOidVfDzWqwttxPnLV/9kvkclx4virR7diNGRZOOa+bsANn/Vgg2eLzEmElmsJBTGFk4AbhGPzy3bT+LhhWb6edbsy1f/+dCLq/+4+zHWLqlGk9LZheIaM/89bP6FgkpUol2Jk5UIMbZwAnALLW2/mqGXF5qlmjcHeovGeLNVsKSS40GAiNdb/fvfsLJ3AY2Yf8JGlc2/UYKdggeCXYQTgFtQpvSD6/GFlvfz3OCutfofOYhQsNVj7iVBRRu9uxRjbZJqNYkAMih3F8Dm36CgUrVAiHh7SBfhBOAaRTOAvL7QrNU8cuFYl3tGtvIvWRk0968Yrmfaj/8Ny9rtk+kTIIPNvwFB5XpCZMY+F1veqViYycEJwAWIICD146wvKG6h/jMs1X/BGG9+gn9p9a/VVf3737CK+/ylnt06svqSzmz+NoLu6FEKU4/rmaFYnMnBCcANHlrVk58B5IcLLefy2X9ESfUviEqXfrBU/4g7rf79b1jlBnwzRwGpVzD/8Wz+NoLu6ZGBrm7tGMUNMDk4AbiBLmdDZnxzoRVU/2YyMBOCNcai6h+U2+rRzusUx1hZsjnmD0J268gjdua/nM3fXtB1vWCHXKa4ESYHJwA3kOnFvrnQiqp/ACPVf+4J33LVPxGAuJN2/W9YFc0/Z/jpIUAaxeY/kc2/VLApeuEQeCaQS3ACcANKKl7FsP4LrWz1T9n1/K0bvY8kCoxU/7WsmNlgjOUlm2/+MncXkOlj868i2DS9UIfkmUAuwQnADUjlB7aBC624+jf7/i2jvwXVv7AMDRAcbNQMbD8AACAASURBVPXof8Oq2fxz32cSGjqWsfmXEWyqnqYZ05/7JEKKG2XACcAdGtkHuIAGKn+ynJ0v60cqf8Cm+reYoqZTjbtm+d+wnJo/aRrGnr0cgQls/jaCzdeTKcxY/s7pihtmwAlAOfTgoghkOqpAqaGz8yt9wlr9F1b+pumNnDDSdG3LPfvfsOoy/3cuR2gam7+NoDd6pKNnJi1U3DgDTgDqoSnTYFRYBK42kcbOLh7QJYBAhXcFMJPESPVvHi8yBKq6k6X/DYvNX6mgt3qR9AmKA2DACUA9qcF5jV0sai60kW5+ARBlu3us/f7WpkTRuVX7/v1vWPWY/5hz2PzLCHquF4xqPBPIBYJeB9B2BOSJ9Z/c+IVGlv7+3ET/QrO3NEWWmT/mayJFkBW3evS/YdVr/uHpbP42gr7QC3eitt31GEfwHYBqjMyq+k5UeKGJQlM3/7WuACosx1oPrdz373/DYvNXKugbPU0zFtGlCCgMhgEnAPWQcUYdJylq2/pV2udvPY5s+v61hKyw0bv/DYvNX6mgv/RkCm+dce5UNbEwJpwAFEIxaJC6wy3s1F1oI/6fq/FrrP7NbqPyWz3637DY/JUK+k+PMuiaZsxrXIixwglAJctWjnc2A0jhhZYzcZHr1C8Z6LUcZ1b/1gQhkuU2e/G/YdVl/mez+ZcR9K1etMew32SJqRtOACoJZWaB9BoPVmyCyFb+WdVKG73n/rUu94xy1b//Datu85/B5m8j6Gs9rYuWKxVkeBaQUih9XPWDAOUXmunkue+tJmjO/hzp7xeFzROAYbvq3/+G5dT8Ze4J35Y3f+XGD/jd/AEgGBF1TrBgysF3ACoxjBoqFPUXhln5V9voHTSyGmhB9V+y2Qubv8JIFcu1QIyu/H8EgiFjGZU8tcI0AicAlUi9yhpALhkrWb619v1b+vits32sr6Nko/c2Nf93sPmXEfW5nlU6re395jkT3Gtg9MEJQCVkVHha0Z2L1/Rzu+q/oFW76l8We2Ebm/9MNn8bUZ/rFSEziEyiue42MrrgBKAIevi8LshUmQdVXLp4LdV8XdV/wlr9s/krjFSxXAvE6Lb559oIjJHHNqGhUQMnAFUYh6fBsFtBzb2Lt9C7i/r+Cw632ehdWvv+29T8zz6Vzd9e1Od65emM0qlNa2wUwAlAFZnMMaUXgosXb87l8wW92Q+Uez2/7wuVnprv+3crRr+Y/4xJbP6loj7Xq4wWJV4TSCGcAFRhpIoWgXP34rVW/1S0oUvV6t8wt3psU/N/B5t/GVGf61Un1Am+A1AIJwBVkGHZBtLli9dS/Rds9F5L9S8BDJWkCUUh+sT8Z04CUnvZ/AtFfa5XIzIVee0bq8Z403j7wQlAGbQ+968b2vY/0chXLdU/KLfRe3oUmL9R8nAD2Pz9qucAmUF0WmSudwG0F5wAFECPnRWETE9sisEUV/9Fff95gyzX9z8goRxfmP8pbP72oj7Xc4rEuJ7OYzwOom3gBKCC4fgkGEkXhEsvtpLqH4XVf8lG7xgxT6FLyFqXKqo5RI/NX5jmP5nNv1TU53r1oUWTp3gdQ7vACUAFSWMeSHVlbXOxOa3+rZu9SAIN+Nu06jL/s9n8y4j6XK9+QlFjtdcxtAucAFQgkjUuAlcrNpV/cZdOUfVfeHDRZi+SoGWowmYv9YTI5q9GrgVi9JH5A0AoDF4UThGcAJSQUbhhtf3Flp/ZA/vqv+ApYPMEIG8wlbd6dBqiD8yfu33KifpcTwEi0/PClmVdXofRDnACUIGUdWwDaYf9xVbQrWPtBio6PJskLNV/zklFSmH17xfzn8XmbyPqcz1FUBozZk+e6XUY7QAngAYhggB0BV1AVS62/CZe2W9ErvovWQMod6zVYJRV/2z+iuRaIEa/mj8AkERgnOSZQArgBNAoD63qcbYNpB0VLjYq/bKr/rOmaVb/lH9NJKWa8Wk2f0VyLRCjn80/RyQoT/I6hnaAE0DjzIK0WwSuVipfbARY1nmrZaN3KjhGxhsILR8Em78auRaIsQXMHwCCUVrpdQztAG8J2SipgcX1n1zlYiOUGn6Z47LVP428T4BIKKj+2fwVybVAjC1i/gAh3Elrqx/HVIPvABqFqM6HUqpfbNaen0rVf/4/lnEBkN1Wj05DZPNXI9cCMbaQ+WfJTN4Zmxf1NJQ2gBNAo1CmjkqkhostZ+Ii933JQG+xVNHdgrDd6N1JiD4w/7PY/MuI+lzPLSxxUhrjliyd5l0s7QEngEYhWWUf4JITaj7KrvonFHUFmd+IkbsCIRus/v1i/rPZ/G1Efa7nFkVxkgGjI7nIm1jaB04ADUAPLopApjscnFH7YXZ9/2QZ7CUUzPYpqP4TDXT8e27+gs2/vKjP9dzCPs5Ql3Gi7RtMzXACaASaMq32KaC1X2ymn9tt9D5S/RMKNnrPmahGZZbBr6lhNn81ci0QY4ubPwBEO8SKJgbSlvAsoEZIDc6r7UJycLFZqvmSgd58lU+FTwZbz43XWf37wPzHnHUKwrOnsPmXivpczy0qxxmMkMPuV6YYvgNoBE0/ofpBzi62vM8TUFz9F3xnV/3nt3p0iE/MP8Lmbyfqcz23qB6nFjTm0qUINCGYtoUTQCNQpsqqhA4vNmuVD7vqn2zXBcp/H6/j4mbzVyTXAjG2kfkDAGQae85ewzOBGoATQCNIeWb5N51fbFTwTVHff0FmsGz1aK3+004b9IH5n8nmX0bU53pu4aS7NIPIpPAC92JpfzgB1AnFoEHqc8q8W4dg9iv7T9Y8R5Z7poobvQsgt9G7k/Y8Nn8ga/5zpgCpt9n8C0V9rucWzuPs6BaK9+IYXXACqJdlK8fbzwCq72IrqP7NZEDZyr9Asaj6BwFCJ2fLEfnB/M861WL+dgsWtYCxsvkrpL44Qx0GzwRqAE4A9RLKzAIVb7Bb58VWVP0DKNgBplL1TwRnWz2y+SuSa4EY29z8ASDQgTUKAxl1cAKoF0oX3XrW/yG2r/6peEwYBRu95950tNUjm78iuRaIcRSYPwAEw/L4O3gmUN3wcwD1YhjLR35o4ENcXP0Tsks6y6L3LE2YQwMAat/shc1fkVwLxOiR+RMB8VQYBwc60TvYhd7BLgwmI4inghhOhzGcCiJtBKEbGnRDg5GbyhwQEsEAIRiQCAd0dEZ0dIbT6Iro6IkmMbknjiljhjG5J46uSDq7GZKJTOOU9esn4M4nez35pVscTgD1Is1F4Bqo/Iu7dHIOal3rR+T7+keqf/NYkSbIWqp/Nn9Fci0QY5PMP60HsbN3LN4+OgYHB7rQO5g1/UTauaXoFIAuAWQAIIwjFfaw6AjrmNwTzyeFGeMGQOPCxwF4os5fZVQjqh/C2EF3zdORGWjs1jM/0Js1Ushshz/JkT7/EcPP/qny6/tLAH2yevcPm78iuRaI0UXz16WG3YfG4fUD4/H6gQl468hYSPKLfZAkwrNCiEeFEI92dnY+E4vF6nkkctThl79gS0EPn9eFo38agqx/K0gqGty1DvKa/fv5n6VN9Z+UkIM1NKIQNn+loj7XAw4OdOJPe6bh9QPjsfvwOOhGywwZpgBsA/CoEOLOzZs3v+p1QH6FE0Ad0IPLF6J/1+uN9v2PVP/IVvQ21b+g3N0BCqt/OiKz55TVZ/NXI9cCMSrUi6dCeOGt6Xh+5zS8dWSsMl2P+S2Am6WUP7322msPeR2Mn+AEUAf0P8e/C4l9v6j7/Hx/P7KzfXKGmn2h6I7Aru+/WvXP5q9IrgViVKCnGxpe2TcJv981A6+8PclHXTvKyQB4UAhxcyKReOCGG26o/xa+TWjbv7Sb0N1LNiLVu7nu8/NdO5Sd+SOLDLVC9S8kIA9X2O3LD+Z/ximIzJvK5l8q6iu9gUQYv3l1Hn63cwYS6ZCimFqGPgDfz2Qy115//fX7vA7GKzgB1AH9bOHPke57f30nm5U95Qd/HVX/wxKy3CwJNn9Fci0QYwN6ffEoHt8xD7/bObOV+vXdIgXgJk3TNl9zzTV/8TqYZsMJoA7ornmHkBmYWNe5lK38s4hsnz9Qtfonylb/dKRM9e8L8z8ZkXnT2PxLRX2hd2iwE4++Mg+/3zWjnbt56kUHcDOAq7ds2fKa18E0C/4UOIQeOyuI3tcyMOrYdsti/gXVf348oLT6z78uAS0u7Xf7YvNXJNcCMdah1zvYiUdeXIgX3pqaLyqYskgAPwXwr6MhEfCnwSH0wGnTMLhz38iUHAfnSstOXpbqPz/t0/xeZt/PnpN9TTMA2WdT/fvG/KfnlnRm87eIeqqXMQJ49OX5eHzHXBhy1Hf1OCUthNjS2dn5n7FYzG6p2raAE4BD6H+WrUJiz7OOT5SFT/g6rv6HZOluX2z+iuRaIEaHei+/PRn3/H4p+uJRxXGMOnYJIT63efPme70OxA04ATiE7l7y90j1fs/ZSSM7eWXX8bGv/pEz1vxp1ur/iCzRVAmbv1JRz/SOxDtxz+8X45W3JyuOYdRzPxF9duvWrTu9DkQlnAAcQj875ltIH/507SfQiInmXxqp/q1P/5at/gdk4W5fo9L8XTDqNjJ/SQKPvTIfv35pPnTu7nGLJICvdnV1XR2LxYrXgm9JOAE4hO5a+BIyfbXtQkSU/6fu6l8nyD4q0VQFm79SUU/0+hNR3LLtBOw6NF5x+0wZntR1/SPXXXfdXq8DaRROAA4ggsBdcyT0oZoOzv5bf/UPCYh+ObLbF5u/Isn2Mf8d+ybi9mdPxPDoe5DLaw4B+NiWLVvqXhHAD3ACcAA9uGoMBnf1V91/0WIwRNYfS6v//DHSstWjXfXP5q9Isj3MX5LAw39ahMdemae4bcYhV3d1df1zq3YJcWehE2RmphPzh8Xk82+JwtcLE8TI6wIADbL5q5VsD/M/OhzFtx9dwebvD740NDT02KZNm2Z5HUg9cAJwQiaxpOL7RQZT4Ovmsg5UkhdQvNE7ESAylN1ymM1fkWR7mP/uQ2Nx/cOrsevQOMVtM/UihDidiP6wYcOGltufmBOAE6Rxctn3ig3GMsBbuNF79qvSRu+gXPXP5q9Isj3Mf8e+Sfju4yu4v9+fTBRC/PoLX/jCe7wOxAmcABxhrLN92cZgqPiHGqt/UG6jd91P5t+s5R3Y/Mvx+93T8cMnT0GGF2/zMx2apt27YcOGj3odSK3wp8kJ0iYB2BlMleo/b7o21T8RQAPOl5moRF3mv/4ki/nbzXpi82+W3m9enYvbnz0B0o1fh1FNUAjx4w0bNnze60BqgRNAjdCDiyKQ6Y7CF+2vyGrVvzDnXlmWezarf5GS9SwzVD7ues1//gw2/1LRpuoRAQ+8cAzu/8Nixe0ybiOEuHbjxo3XwOczLTkB1ApNmVawB3A5gymu/nPdO2Wrf/M9U3NIncmw+SsVbaoeEXD388fhiR3zFLfLNJFNmzZt+g58nAQ4AdRKanBeQT+NDSUvW7t1Sg4emRVkHiQS6qr/esy/Z/0yNn970abrPfTHY7D9jZmK22WaDRH9w4YNG67yOo5ycAKoFU0/AUBFg8nP7IF99Z9/r6T6J0Ci/E5fDqnX/KPzZ7L5l4o2Xe83r87F41z5tw1CiC/6dUyAE0CtyPTKSgZjV/2TzesCKKr+cwcmKuzz6wA2f6WiTdd7ftd07vNvQ4QQ127atOljXsdRDCeAWpHyrGqHFFf/Ilfhm33+Fm8euV3IvUYKtpxg81cq2nS9V96ehDt/e4Lidhm/QETf37hx43u9jsMKJ4AaoBg0yMycsu+bA7z5F+yr/6wRm9X/iPljuPHqn81fqWjT9XYfHoefbDuJp3q2N0EAd/npiWFOALWwbOV4GKnKx+QX8hxZ0bO4+h+Z/WkZFTYar/7rMv/T2fzLiDZdrz8RxQ9+czI/5DU66BBC3OeXtYP4E1cLocys7MI8NpDlC5auHpvjsuZMBQmi0eq/bvNfwOZvI9p0PUkCt2zj5ZxHGROllLfFYrGg14FwAqgFI7m03FuF/l+++s//xzIuIAyAEvWHxeavVNQTvYf/tIgXdhuFCCFOHxoa+nev4+AEUAukn2r/OvKeDtgM9FqPQ9FYAQEUr3/SP5u/UlFP9Hbsm8hLOo9ihBBXbty48d1exsAJoBakvt7u5XLVvzkAnLcB07QKqn8CJesLpy7zX3cim7+9qCd6/Ykofrr9RMVtMy3Ij6+44grPnvjjBFAL0lhZ8pq1mkdh9S8sx2Rn+4iS6h/x+oynbvNfOIvNv1TUE71sv/8JiKe435/BpGAw6Nl4ACeAKtDD53VBpgMlr+e+smZfpvonAqhwNVAiQOgEqjKpyDYWNn+Vop7pPfbKfN7AnbGyfmho6IteNMwJoBqBvqkw0oWvWar5QsMfeR2SRrqILK8LQl0LvrH5KxX1TO9IvAO/fmm+4vaZVkcI8ZUNGzY0/YPBCaAag4lFxRd4Ye9PYfUPmN0+AEhk7xAs1T90AlXZVrgYNn+lop7q3fP7JdAlX3ZMCVEhxNeb3Sh/EqthpE4q+LlC37/1dsCu+gcADDozDDZ/paKe6r389mS88vZkxTEwbcQFGzZsuKCZDXICqIYwCh7bLrzki/v+rZmhcDVQIkBLU9nnyexg81cq6qlexgjgnt+XfZzEN5xzzjk488wzvQ5DOevXr8e5557rdRhVEUJ8IxaLdTarPc+fRPM9JM8Y+R756h7I+ZQAIAFIKloO2nJO7jByUP3XZf5rT2Dztxf1XO/Rl+ejLx5VHIda3vnOd+K8887L//zEE094GI061q9fjwsuGCmsH3nkEQ+jqcq8eDx+JYB/bkZjJbNbmBHosbOCiB+8CjJbtlsveyrYzpEsM4JgW/2LZO3z/h2bPwE9605AdNFsNv9SUc/1egc7cduzJ2Q/Mz6l2PwXL16MVCqF3bt3exhV4xSb/8KFCwEAb775plch1cLqdevW/XTbtm1H3G6Iu4AqMRyflF8EzlL9F2z0LrMvVqz+CTXP/GHzVyrqC71HXlwIw8cDv8Xmb3L++efjjDPOsDmjNSg2f5Nzzz3X791BYQCxZjTk30+lH8ik5pp7NBZc+mYysEz1HHmvcD0gECCStW31yOavVNQXeocGO/HCW1MVx6KOcuZv0qpJoJz5m7RAEvjwl770pUVuN8IJoCKp4wCUVv95V7a8R2UsggBp58vFh7H5qxT1jd5jr8zzbddPNfM3abUkcPrpp1c0fxOfJwFNSvkl1xtxu4GWhowVgF31TwXdPWJkof8RPzPfrGGrRzZ/paK+0euLR/H8rhkKY1FHreZvcv7552P9etslsXzF6aefjgsvvLDm4/2cBIjob7/4xS+W3YhKBZwAKmHoZ5ZU/5Lyg7vml7RW//mN3nPnVdnonc1fqaiv9B7fMQ/Sh9W/U/M3ueCCC3ydBJyav4mPk0BQSrnJzQY4AZSBCIKkcXzBi2aff1F3j7nRe/GCb6LKZi91mf9aNv8yor7SG0iE8budni3yWJZ6zd/kggsuwMyZ/vu9Zs6cWZf5m/g4CXxi48aN09wS5wRQjodW9QgjNdLVYw7oWqr/kn5/a/UvAVmh+q/P/I9H9Bg2fxtR3+n95tV50H22xWOj5g8A9913H/bu3asoInXs3bsXDzzwQEMaPk0CEQBfcEvcX59QPyEzM8nILdpjXd6hyBuy0z9tlnseLj/tp37zn8PmXyrqOz3d0PC7nf7q+1dl/k8++aSiiNTzxBNPtGsS+F+XX355xA1hTgDlSCaWZCf8UH7mj7A82FWx+q+w0Tubv1JRX+rt2DcZCR/t8TsazN+kTZPA+Egk8l43hDkBlEEaxsnWqT521T/grPpn81cq6lu953dNV6bVKKPJ/E3aMQkIIf7GDV1OAGUQIr02awnlN3rPz+8oqP7JdqN3Nn+lor7Vi6dCeOXtScr0GmE0mr9JGyaB91155ZUTVYtyAiiLPL1goLeG6p8kbJd8YPNXKuprvRf+Ms0XUz9Hs/mbtFkSCBmG8SHVopwAbKA7jg+Tke6w3eqxOCFYl3s2Srd6rMv817D5lxH1uZ4/un/Y/EdopyRARMq7gTgB2GGIqdBTBWZdWtMVVv8CABVV/3Wb/2I2fxtRn+sBvYNdeOvIWOW6TjjnnHPY/ItooySwatOmTUtUCnICsCOiLwBQWv2b79ts9I4MgSxbB9dn/sex+duL+lwvyx99sOjbOeec09D57Wb+JqqSgNdIKS9RqccJwAZpGMtsq39zNhBQOvPHUv3Xb/5z2fxLRX2uN8LrB8a7pt0M2tX8TVQkAa8RQpytUo8TgA0kjZWVqv/ijd5FZmSj97rMfzWbfxlRn+uNoEsNuw+Pc03fbdrd/E3aIAmsi8ViyraW4wRgB9GZeR+3VPllq/9B0/CBusx/CZu/jajP9QrZfWic75Z+qJXRYv4mLZ4EIkNDQ6tVibXmJ9ZF7rgUAcjMbMDGMuy2ekwTyGDzVyzqc71S/NL9I4SzKaijzfxNWjkJaJqmrBuIE0AR73nPKRMgUwXVv3Xt/+wLlhOGqP4+fzZ/O1Gf69nz+oEJTWmnGoFA7dt867o+Ks3f5IknnoCu616H4Rgi4gTgFpGxxmwy9ELDB2yrf21Y5vaL5wFfRaI+17MnrQc9n/7JjCpWbdiwoUuFECeAIiiTOtZ0/4obvUvTu3nAV5Goz/XKs7N3rC+e/mVGDcFAIHC6CiFOAEUIwzi1WvUPidxWj9znr0jU53qVefvomKa2xzBSylNU6HACKELTjHVmyV+y5LP5ugHIuEPzX8XmX0bU53rVOTig5G6cYWqGiJaq0OEEUIQkYwWhzEbvEiAJiKSRM3sH5r+Uzd9G1Od6tdE72OlJu8zoRQihZEkITgAWer+3rgd6KlBS/VuXfCCCHGbzVyDqc70aW6XsGkAM02SWwG6JModwArDQM35oOoxMafWfq/xBBBGXIMnm36Coz/VqJ54KI5EOetY+M2oZf+WVVza88QQnAAtG3DiGiLJGbnmdJABQduZPwqH5p/ex+ReK+lzPGQcHuPuH8QZd1xseB+AEYEEzUicDufsqEiA5Yv6QAA1S9rXcS+XN/9gR89cHbVpqARNk868J7v5hPKThcQBOABa0sL4ybynmN7lyXxgCRrJW85/H5l8q6nO9+uAEwHhIwwmAOy8tCKLTCVkzz1b6lJ/tI4dkDea/lM3fXtTnevUzmIx4HQIzeml4+zm+A8jxUuz4sDTSE4Q520fkun1IABmCTKEG85/P5l8q6nO9xoinRl8NJYRwvOhcK+i0IA1vEj/6Pr1lmDYnuw2klAKg7AJvlBsHQJwqm/9KNv8yoj7Xa5zhdNjrEJqCpmlYu3YtVq1ahSlTpgAADh48iO3bt2Pbtm2QUjZdZ926dVi5cmWBzjPPPINnnnkG5Mrn2XdwAlBFp9DmkT7y4TPNXejZ6r+i+R/L5m8j6nM9NQyPgjuAcePG4bLLLsO8efMKXp86dSouvPBCnHTSSbj11lvR19dXUWf8+PG47LLLMHfuXFudZcuW4dZbb8XRo0fr1nn/+9+PZcuW4bbbbkN/f3/tv2Rr0nAC4C6gHDKQOD77TW4MAMhW/YPE5u9c1Od66kgb7Z0ANE2zNX8rc+fOxWWXXQZNK28npk6xaVuZN28ePvKRj1TszqlFZ8GCBfjwhz88GrqFGp6BwAnAxDBWZMd8s+YuCUCaIDNs/g5Ffa6nllbdBaxW1qxZU9H8TebOnYu1a9eWfX/t2rUVTdtk/vz5FXXWrVtXk87ChQuxerWyjbP8SsMzENr70+sATTPWjsz+gWXeP5u/A1Gf66mn3RPAqlWraj525cqVSnQqHatKp03gBKCCWAwaJB1LyK70TBIQKYLMlJp/92ls/mVEfa7nDkYb7wMghMgPsNbC1KlTbbtdnOpMmTLFVkfTNEyePNlRPG0OJwAVfH7S0vEyncoZPQAJyEHYmn/HcWz+NqI+13OLVomzOYySmTdtBScAABLhuUQZSHPphwRg6EXmv5LNv4yoz/XcIhtnQNQ2bbEVISIcPHiw5uMPHjxomwSc6hw4cMBWR0qJ3t7emnX2799f87EtSqpRAU4AAEQwsSS72icAKWAMUan5c7ePnajP9dxiJM5goFViro/t27fXfOyzzz7rKx0nx7YonABUQBKnkgSkIYBhCWkUdfuw+duJ+lzPLQrjDAba9w4AALZt24Y333yz6nE7d+7EM888U1Fn165dVXXefPPNigng6aefxu7du6vqvP7665wAaoATAACh6atICpAB6MPc51+DqM/13KI0znBA9yCO5kFEuO222yomgTfffBO33XZbxTEAKSVuvfVW7Ny5s+wxb7zxRk06t9xyS8Vk8vrrr+P2228fDWMS8UYF2vsplhohwmlSAiIpQbpp/kvY/O1Ffa7nFvZxdkZ0HGn4MvQ3/f39+M53voM1a9Zg1apV+dk1Bw4cwLPPPotnn322JrM9evQovvOd72D16tVYvXp1fmZQPTrf/va3sXbt2vxSEESU19m+fftoMH8AONyowKhPAC/94+RuGOmoMABjKGf+Kxaj47gFbP6loj7Xc4vycXaG002MwzuICNu2bcO2bdvyUzTrMVkppTKdp556Ck899VRDOi1Owwlg1HcBdU2fOlumU8AwQcqc+R+/kM2/VNTnem5ROc6uSHt3AdlBRErM1m86LQjfATRKOJxeQjqgx9n8K4j6XM8tqsfZE002IQ6GsWVfowKj/g5AaDiZEpLNv7yoz/XcorY4J/e0+QAA42debVRg1CcASiXfET3WNP/9bP6Foj7Xc4va45zcM+xiHAxTEU4AjRKYPndVpmcaEvv3QKbt1g9vARNk81eIszinjOE7AMYbgsHgjkY1Rn0C0Hu6TjISh36bPDqAgbclUoNk8YAWMEE2f4U4j7MrkkZHePQNBDOe03fVVVcdalRk1CeAmR/8xauTPvDUqqN7k2fKtPzLcJ+Bgf06MsOG4pbY/tiktwAAEtRJREFU/P1NfXEKweMAjCe8CgUX16hPACYLPvPKb359xx8WJA6l/t5IyeGhQxJDBwwYaRUGxubvbxqLkxMA02yIqOH+f4ATQAEfvBPGzH94+Qc7njo8KT0or8qkSA7sNzB8WELq9ZoEm7+/aTzOKWN4IJhpLkKIhvv/AU4Atqy9bk9i2t/88ctvvSCnGyn9f1JxiYF9BhJHZXa56Jph8/c3auKcMW5AiQ7D1Iqmaf9PiY4KkXblpNgfD07+8IsX7//L4IlSxx+TAxIDbxtI5ZaLrgybv79RF+f8yUehiVb5vZk2QDcM4ykVQpwAauC4z73x4oRL/nBy/IDxPtJl7/ARA0P7DWQS5S56Nn9/ozbOcCCD2ROOKtVkmAps37p1q5KBJ04ANSIAmv2pPz047vYXpsf79c/pKZke6jWyA8UZ65Fs/v5GcZy5v82iqUfU6jaBYDCIM8880+swPGP9+vUIBmtfDccwVM8MrA8hxKOqtDgBOETcCWP2x1/8xsHteydlhvVvZ1KEwf06ho8YIOnC5iBs/ooguGX+ALBoSuslAAB43/veNyqTwPr163HBBRc4OscvC85JKTkBeM3SzYcGp/71i58+8pI+x0jTo6lBiYG9Eol+pwPFFWDzV4T7d2VzJ/W37O5goy0J1GP+PiLV3d1dfss0h3ACaJBFX3nxrUkffOGc/reHV8sMvZ48mp0xlB5u0AzY/BXRnC65oGZg7sTWHQcYLUmgxc0fAJ6OxWLKlqDlBKCI+Z95bfv4S19YnD5sfJh06o/3SgzuN6Cn6jAgNn9FNHc8plW7gUzaPQm0gfmDiJR1/wCcAJQiAJr2Dy/+9I1fvDA5NaT/ayYp5eB+A8OHZNFAcQXY/BXR/MH4ZbP3q2/TIY888khD57drElBh/r/+9a8VRVM/Uso7VeoFVIoxWb77POS1P+994m9nhr7ZOTU6RxJOTA9KEIBgWCC3g10pbP6K8GYmVlckgx37JmMgEVXffo2Ym7cvXLiwbo3FixcjnU5j9+7dqsLyFBXm/8tf/tIPCWD7tddee41KQb4DcJHjr9tzZPJlf7osvm/oGCNDv0325x4kG6BSj2LzV4S303CXz3tbffsOeeSRR/hOIIcq8//Vr36lKKL6EULcrFqTE0ATmP2/33h90of+uGr4YOadUpdvD/cZGNinIzOcMxY2f0V4/wzGSbP3+eKpYE4C7WX+ADKBQOCnqkW5C6iJfO3+3p3L6cDXp02b+HYgEjg7M0whIy0RCGvQlP4l2PzVSDrXDAcl9h4dg97BLvXxOGQ0dwe1mfkDwH3XXHPND1SLcgJoMne+DPra/b3Prx8XuH76tGgUmlibGpIgnRCICoiyAwS1wuavRrJ+zWCA8MJb0xQGUz+jMQm0ofmDiL68bds2JSuAWuEE4BG3PT+Y2frzg7/89MIJ3w1PwVLDEIvTg5QdKI5UGCiuCJu/GsnGNCd0JbDtjTnQDX9cXqMpCbSj+QPoS6VSn/rtb3+rfC0Kf3xCRzHXP3loaPOdvbd+avWYe0JdwTONDCan4wQREAiGnWQBNn81ko1rahohngpj9+FxCgJSw2hIAm1q/gBw43XXXfeQG8I8COwT5l/x2h8mfvBPxw/10sVSx5HhwwYG9xvI1PQgGZu/Gkl1mmcs3um7pSFUDQzPnDlTUUTqmDlzZruafwrAtW6J8x2Aj/g3ANfdf3DHpeMOXNc5Y2J/AIF3pIdlQKZz3UK26ZrNX42kWs1IyMBAIoI9fWOV6jZKo3cC99xzD1566SWVISlhcHAQqVQKixcvrut8n5o/AHxny5Ytd7glzgnAh3z3echr7+595hPH9Xw9MjYwmYBT04MS0igeKGbzVyPpzjTcaWOHsO31uSA0OrCvlnqTwD333IOnn37ajZCUsHv37rqSgI/NX9c07UNPP/10v1sNcALwMTc8fiS15WcH7/vc+gk/RFSsIEPMSQ8BQggEw4BaX2HzVygKAOgI6+gb7sDbR8e40EZjOE0C9957r6/N38RpEvCx+UMI8YPNmzf/2M02eAygBZjxmVd2T/nQi+sH9xnrZQY7h/v07INkCWXrTivScZPWMn+Tdxz7JoQPHgyzo9YxgXvvvRdPPaVkB8Km8Jvf/Ab3339/1eP8bP4ApKZpV7vdCN8BtBDXP9j7lxU48M1p0ye+Hghr52YSFDaShEBEQAvUezvgT3MqpDXNHwA6wxn0DnZjf3+PC+01TrU7gVYzf5Pdu3cjnU6XvRPwufkDwG2bN2++ye1GOAG0GHe+DPrafYf++J7Og9dNmDkZIiBOTw2RkDoQDANC83LqqBu0rvmbTBs7iO1vzgaRv8YCTMolgVY1f5NySaAFzD8N4IPbtm1zfX1xTgAtyo/+AH3rz3sf+/iCCTdGJ2IBkTguPUQgqrLiaB42f4WiFd/timRgyAB29o53oW01FCeB++67r6XN36Q4CbSA+QPAVVu2bLmrGQ3VviMy40uOvWrHYQCX/vnGY44dPylyKw3Ik9NxQnSshnBXuUTA5q9QtKajzj72Dfx+93T0xTtciEEN5nhAMpnEk08+6XE06njiiScAAMFg0A9LOldjV1dX11XNasyf96RM3bx14/Hvjk7TfhgQmBoMCUTHawhFrX9mNn+Foo6OfvntKfjhU6e6EAfTLhDRhVu3br2vWe1xAmhD6FIE3j7v2E91TAheC4FIKCLQMSGAQIjNX6FoXWf94KlT8crbUxTHwrQJ923ZsuXCZjbI00DbEHEnjJn/8MqNbz1zcKI+RDdkUoTBfTriRyRI+jkJtLf5A8BFp7yCoKZ8TS+m9UkS0eea3SjfAYwCXostmjV+SeT7Wlg7V9MEwmMFot3llpbwivY3f5Nfv7wQD794jIJYmHaBiL6ydevWrza7XV9ZAOMOx8Re3zPpIy+dN7hneIWRoT8n+yQG9kmkhv1yNzB6zB/IPhw2b1KfEi2mLXiyu7tb6V6/tcJ3AKMMAsRfvn/8X3X1aDdpGsYGIwLRcaJooLjJESmX9K/5m/QnIrj+l+sQT4WV6jItxyFd10++7rrr9nrRON8BjDIEQHP//qW7dj3yp8l6wviykYIxdEBiqJdgZJodzeg0f4AwtiOJD6/6o2JdpgX5mFfmD/AdwKjnjS8uGNt9UvSboUjgowJAZKyG6JhmjA+MXvO38tCfluCxVxYoboNpBYjoqq1bt37Zyxj4DmCUs/CaN/unXvbyx47sHz5GZujZZL/EwNsSqUFy8ZEBNn+Td53wZx4PGIUQ0VPd3d3/4nUcfAfAFLDzWyee2TNZ/kTTtFmBENAxTkOoU+XHhM2/mP5EFNc9vA7DaR4PGCUcEkKcsnnz5j1eB8JrATEFfP2Bg7tXoPcb02eM3xUMa+9MD1NYTxOCIQ1aw58WNn87oiEd8yf34Q9/mQnp0wXjGGUkiOg9W7ZsednrQAC+A2AqsO2KWR3zTxkbi3SLjSCIcLdAxzitzqWn2fyrsWPfZPzwqRXw9bN6TCPoUsoLr732Wlc2eK8HTgBMVV6ILZwydXHkpnBEu0AIIDJGQ3SM5mCgmM2/Vn6/eyZu375McRyMHyCij23duvUnXsdhhRMAUzOv3LDgxClTOm4RQXGiFhCIjtMQ6a72EWLzd8pvXp2H+184VmEsjA/4/JYtW67zOohiOAEwjiBA7L3p2Pd2jQv8gAQmB8ICHSUrjlqOVh5Ae5u/yYN/XILHd/D00HaAiK7ZunXrl7yOww5OAExd0KUIHHjvkssjPeFrSFA41KGhc7wGLZQ/woVGR4f5A9lf9e7nT8D2N2cr0WM847tbtmz5FHy6DjsnAKYhdmya1DN+2ZQtoQ7t/xMAQj0CHeMENEdbU9bAKDL/vBplHxTjO4HWJFf5Xwmfmj/ACYBRxBux4+f0LMWPgiGcJTSB6FiBaI+m5hM2Cs3f1EwPSzz+4nz8atfxLugzLuLLPv9iOAEwStlz3dI1HbO0nwhNLNBCQOc4DaHOBh44H6Xmr6ckEn0SmSQBEvEHXjvx1j/1z/878Daufkcnor/z22yfcvBSEIxSZl2x45kJl768KNGfvkym0T/UKzG434CRrsMkR6H5Sx0Y6jUwsM9AJkkyM4ivvvpsfPLffOWuTwK4CEBCaYOMShJSygtbxfwBvgNgXOSxjyN63DuWfjHUHfgXAFq4S8uODwRr+NiNMvMnCST6JZL92d3CjBTdefgl7dPHXrXjsPW4DRs2rBFC3AdgorLGGRUcJqILtm7d+ozXgTiBEwDjOi9dMWvClNN6vhmIaB8RAoj0aIiOrfAg2WgyfwJSg4TEgITUJWRGPHf4YOqjS/9p56vlTtm0adMsIrodwDo1QTCNQERPaZr2ET+s7eMUTgBM09j7rSVLIhOCP9FCWCECAh1jNYS7BYT1UziKzD8dlxg+KiF1QEi5Z/AgPj73M3/+dS3nxmKx4NDQ0L8LIa5UEgxTF0R0VXd397/EYjHd61jqgRMA03R2f/OYc7unBn8oNG1GIJR7kKxDjBrzN9KEeJ+EniRoJOLDR1OXP/3LN2/+4J1wvFv8xo0b3w3gxwAmNRwY44RDAD62ZcuWX3gdSCNwAmA84Y5LETj9Xcd8IjIucp0Q1BGMAJ0TAwgonePiL/OXOiFxlJCKSwCQmUFc/eYfh/5j7XV7GhrYveKKK2YGg8HbAKxvKECmVp7Udf0jXu7kpQpOAIynPLxhatfJJ43/92CH9nkhgHC3QOd4DUI0+tH0j/mTBJL9EslBCaLsAO+eF43/fepVr/eqii4WiwXj8fiXAPwfAFFVukwBSSL6j+7u7mtatcunGE4AjC/YsWn2jImndv+3FhTv1TSBSO5BsvrygE/M3zrAaxDIEM8fPpj46JLLd+1QG98IGzZsmC+E+AaA891qY5RyHxF9buvWrTu9DkQlnAAYX7HrG4tO6Z4WvFVo2tJAUCA6XiDi6EEyf5h/ZpgwfNSAkQEE0d7BffTxuZ/9868UB1eWDRs2XJBLBPOa1WabsouIPrt169b7vA7EDTgBML6DAPHWTcde1D1WfI8EJgQjuYHiSLOXnnaup6cp/wSvRiI+2J/67LMPv/mjegZ4GyUWi3XG4/ErAWwCwPtNOiMNYHNXV9dVsVhs2Otg3IITAONbnvskQjPXHfNP0a7wf0pQMNypoWO8Vmag2FvzJ4Mw3DcywGvEcfXrf2h8gFcFn//85xcHAoF/BfBh8NP/1ZAAbgcQ27Jly2teB+M2nAAY3/NabNGYsQvD1wc68HcCQHRs7kGy/KfXO/MvHuBNp+hn+140Pq1ygFcVGzduPAbAlwD8DXhNoWJ0IcSPNE27+uqrr37d62CaBScApmXYccOS+ZOnaj+CJtZruQfJIt1Q/CmuzfwpN8CbbOIAryq+8IUvzNU0bSOATwCIeB2Px6SI6L8DgcCWa6655i9eB9NsOAEwLcfuGxef3j058BNomBsIAZ3jAgh1Kll3uqajSgZ4D8i/m/uZ1x5REEBT+ad/+qfpoVDo8wD+F4DxXsfTZPoAfC+TyXzt+uuv3+d1MF7BCYBpSe64FIG171781509gW+Rhq5QR/aOIFh1oLgc1c3fSAPDfUZ+gHeoL33FM4+88X0vBnhVcvnll0c6OjreR0QfA/A+AKFq57QoGQAPENHNqVTqwRtuuCHldUBewwmAaWke+ziix56x5CuhMdqVALRwp4aOsQKBsJOPdmXzN9LZJ3jTCQkIUGoI1+z6w9C/+2GAVzVf+MIXJmma9iEAHwOwyut4FLFdCHFzIBD46VVXXXW4+uGjB04ATFvw+ysXTZ5+vPbtcDTwAQAIdQiEOzWEOlFle0p78ydJSMeB9HBuUxYA6aS8e99L8lN+HOB1g02bNi2RUl4ihDgb2ZVHW2W8IAlgGxE9qmnaXZs3by67supohxMA01a8EVswp2tR+KpQVFwGZD/ggahAKCIQCAOBoAYRIAghIDQCSYCIQIaAkZEw0kAmTTBSlF+bLpPErUOvZL606KtvvOXhr+YpsVgsOjQ0tFrTtLOJ6Gxk7w78MpNIR7bKf1RK+Wh3d/ezsVgs6XVQrQAnAKYteeXKpRMnLDYuDXYGP4sAji09giAqLUAqxcupo6kb+neG7yzelIUBYrFYdyKRWCelPIWIlgohlgBYAvcHk/sAvEpErwohdmia9v86OjqejsViQy6325ZwAmDanpeumDWhY2HPCR09+qpgOHB6QBMzScipQohxRHRUkHbAkHKvnpZPJQaD2xNvDL54/HV7jngddwsirrzyykm6ri9FNhksATAd2d3LzK8uZLuSzC8ASFm+4gAOW772AXhV07Qdmqa9etVVVx2CG5swMwzDMAzDMAzDMAzDMAzDMAzDMAzDMAzDMAzDMAzDMAzDMAzDMAzDMAzDMAzDMAzDMAzDMAzDMAzDMAzDMAzDMAzDMAzDMAzDKOL/B1Btp7/HhI8JAAAAAElFTkSuQmCC;" vertex="1" parent="43">
                    <mxGeometry x="890" width="384" height="384" as="geometry"/>
                </mxCell>
                <mxCell id="32" style="edgeStyle=orthogonalEdgeStyle;rounded=0;orthogonalLoop=1;jettySize=auto;html=1;exitX=0.25;exitY=0;exitDx=0;exitDy=0;entryX=0.25;entryY=1;entryDx=0;entryDy=0;strokeWidth=8;strokeColor=#4D4D4D;" edge="1" parent="43" source="9" target="8">
                    <mxGeometry relative="1" as="geometry"/>
                </mxCell>
                <mxCell id="34" style="edgeStyle=orthogonalEdgeStyle;rounded=0;orthogonalLoop=1;jettySize=auto;html=1;exitX=1;exitY=0.5;exitDx=0;exitDy=0;strokeWidth=8;strokeColor=#4D4D4D;" edge="1" parent="43" source="9" target="4">
                    <mxGeometry relative="1" as="geometry"/>
                </mxCell>
                <mxCell id="9" value="" style="shape=image;verticalLabelPosition=bottom;verticalAlign=top;imageAspect=0;aspect=fixed;image=data:image/png,iVBORw0KGgoAAAANSUhEUgAAAYAAAAGACAYAAACkx7W/AAAACXBIWXMAAAsTAAALEwEAmpwYAAAgAElEQVR4nO29eZxcVZn//zm39l7S3dn3dCArWVhCEkIWYxTcUAYHnHGbcebn+HVG1EFCFEedGkcnJB0EBRwXVARRBMRRIIgoYQAXFh1lS5AlCQSydJJOeqvt3vP8/qilb1Xd2s+te6vqeb9eTbqr7v2cp+m6n+e555x7DsAwDMMwDMMwDMMwDMMwDMMwDMMwDMMwDMMwDMMwDMMwDMMwDMMwDMMwDMMwDMMwDMMwDMMwDMMwDMMwDMMwDMMwDMMwDMMwjGqE0wEw1UNhaDhn/dmA91II7wUQog3Qn4KR+DqE/nPx1t8ddzpGhmHcCyeABoV+uWE+EPgdhDah4EHG6L/hLY9sFQJUx9AYhmkQOAE0IHTfhnfDG/oJpA4kTgKxk4CMACQB4QP84wBfF+BrB2T8Dzh/10pOAgzD5MIJoMGgu9fMQHDcAcROApHXADIKH+zrAtpnAHriOvH2//1E/aJkGKYR0JwOgKmQQMdDiBwGRl8pbv5A8u7g5AuAx/tx+vm5K+sTIMMwjQIngAaCfrl2OhIj8xA9UsFJCWDkABAI3UbEd3wMw4zBCaCRMLwXY/RA5efpQ0Di5Cm4b+1b1QfFMEyjwgmgkTAibwHp1Z07ehjQ/DdTmP/mDMMkYTNoJPSRc6s6jwggHYgNTMTqDR9UHBXDMA0KJ4AGgZ5c4YMR7a78RNPsz1g/AM9/05MrfOoiYximUeEE0CgcD06CjFV2DuVM/ScJxPtDOBL6lLrAGIZpVDgBNAqj8V6QLP/4XPNPEz0OaN4v090r2tQExjBMo8IJoFHQEkvLPraQ+SffBKKHPfC0/1ftQTEM08hwAmgUpF7eg1xFzT9F7AQg8Em6a1XhdYQYhml6OAE0CkTryzimfL3IIaC97Rs1RMQwTIPDCaABIIIAJRaWOqgiEkOAEb+Y7junt/rIGIZpZDgBNAK/WjEORrTw+5Waf5rIYUAEb67uZIZhGh1OAI2AEZxZ8Angas0fAPRRwIiup1+sO716EYZhGhVOAI2AHrHu/qnF/NNEDgHC/6PahRiGaTQ4ATQCRuzMvNdUmH9SG4gPLqad525SI8gwTKPACaAxyF4DSJX5p4keATzBW3i5aIZpLTgBNAKGsTbzvWrzBwAZB2LHp+OBdRerF2cYxq1wAnA5tGtjEDIWSP5gx7a+Kc1oP0C+G+l2eGxohGEYF8IJwO1EMRUybq/5A8ntJaNHx6Fj/b/Y0BDDMC6EE4DbodFTKloErnzh/JdixwBNu5p2bQza0CDDMC6DE4DbSUSXqRctcDdBEogc8SFmfF59mwzDuA1OAG5HJlarFSzRlRQ/AUBcSQ+s6FLbLsMwboMTgNsh2qBQrLxjRg8J6O1fVdcuwzBuhBOAi6EwNJA+Q5Fa+YcmBgEYf0+/XDtdTdsMw7gRTgBuZsXG8TAq3AbSkipmEI0eAqTvJgWNMwzjUjgBuJro7IKLwJVNldNH9RHAiJ5H969ZVGMADMO4FE4AbkZGF9cmUOOzA5FDgAz8sDYRhmHcCicANyMTZ1d/soIHx4woYIycSXefu6Z2MYZh3AYnAFcjzy19jBUKnxqOHAJ8/h/yQnEM03xwAnAzZFRxB6B4yQgZB+InenHfugvUCjMM4zScAFwK3X9+O2Sswr+P6vWCUnqRfkB4v09h/rwwTDPBF7RboaFpMOKVnKA6ANP3OhA/1oPVa/9BcSMMwzgIJwC3IqPzyz/YTvNPET0KwHsDPbnCp7gxhmEcghOAW0kYZ5R3YB3MHwAggVh/AEcCWxQ3yDCMQ3ACcCukn1PGQaobLf527DggPF+kXRs7FDfMMIwDcAJwK9IosQhcnc0/fUzksIaovEpx4wzDOADP7XYh9OQKH/YPxKFHCh2husXKDu+cBxjRSeKdfziqOBCGYeoI3wG4kaNtEwsvAuew+QNA5DDgbf+W4kAYhqkznADcSDQ613obSBeYPwDoQ4BMXET3r5qrNh6GYeoJJwA3oiWW5r/oEvNPEzkIyNCtamJhGMYJOAG4EYqvyHlBdQO1SxgRQB9dQ/euLHO6KsMwboMTgBshbDD/oFpcGdFDgNZ2mzpBhmHqCScAl0EEAZlIbcLiYvMHACMGJAYX0s/WnqdWmGGYesAJwG38asW45Awgl5s/pfSiR4CA7xZeLpphGg+v0wEwORjBmZCVLAJXDjaZPwDIBBA7PgU71/wt8LsfqW3IHogg8OCm6YjGZwIAhPc1vO2h14RQnnUZxtVw1eYy6J6z3o2R13+iUFGdFJBt/mmEB+haMIyA6BFvfKjWTYxtg55c4UN/26UQ3v+AEJ3Zb9IIZDyMydGvirP/kHAoRIapK9wF5DYSsTPVidXB/AGADCDa34Fo9ONqG1TH0F3nTsaxcS9C830FZHQiPphc4TR6FIgPAmS0wxPow9HOl+lnq6c4HS/D1AO+A3AZ9NNFv0b8xCYFSrVLZMmV0hNA9wIdg/o48Z7fFVrDwhHoO2s7MSNwCDLRhuhhIH4C+Q/aCSDQDQSnApo3hlh8krjwN0OOBMwwdYLvANwGybUKRGqXyJIrd6G4I160a/+htnEFzPDcA32kDYMvJFc0LfSUdWwAGPwLkBgOwK/trHucDFNnOAG4CNq1MQgZC9SooiaYjFwFerEBQOAK+ukZ3WqDqJ7oj895Mwx9A4b3AlTG8AQZwPA+QCbW0T2r32h7gAzjIJwA3MRofEpl20Dm4qD5p4keBgLjblAbSHVQGFqgK/AdjOwvUPUXQgIj+wGNp7cyzQ0nADdBsVOqN3EXmD+QGlBNvI92rp6pNqDKMZatuRCxgdmFV1a1IvV7G3EgPjAD96y50JbgGMYFcAJwExRbVuWJiuNQsFCcCNykJJYq2bURXk+b/1uIHKngrJzfO9oPeD3foTBfJ0xzwh9sN6EbZWwDmYvLzB8A9FHAiL6Jdq4+rXax6lj7yXM/gNjRiWX1+wOw/P9IBhA9Nh6r1nxAaXAM4xI4AbgKub6y411o/mkiBwEt6MiTwRRe4vcFfdcjWu6GZUV+79hRQHi/Trs28lPzTNPBCcAlUBgapF5Bv7mLzR9ILxS3nHaeo2Baa2UkVoz7Z8SOtIOMMo4u8XuTBCKH2xGN/4uS4BjGRXACcAsrNo4vf7DS5eafFAUiRwAt8MN6zqR59bKZIZ/Xtx3RY2UcXebvHTsOEHbQznk1TtFlGHfBCcA1RGeX11/dIOYPADIOxAZm4776zaSZvqn304gc8pee9lnJ701AtN8HmnxlLbExjNvgBOAWZHRx6YMayPzTRPsB4f9uPWbS7P3eGd2aB59HbKDEkVX83rEBAPQF2rWxo5rYGMaNcAJwCzJxdvEDGtD8geTTt7GjPVi97sM2NJhF78SO/0D0sFb8/1UNz1lEDwtEE/9VpQDDuA5OAK5Bnlv4vQY1/zSxowDEdXT7Er8NDQMADv338snQ5CeKV/81/t7xk4A0Pk6/WDO+NiGGcQecANwC6QXuABrc/IHUTJojfrR32daHPqW352pEDxULQk1DkUOA4blOjRjDOAuvc+IC6P7z2zG0Zzh/HaAmMP8MAuhaQIhTl+pllo/fvGJ2zwTffgy+WOAIxb935ymAoc8QF/7f62qFGaa+8B2AG6Chac1t/qljRw8L+MQO1VF0T+y4AZFC1b8Nv/foQcDXdqN6YYapL5wA3ICMzs9+odnMP0XiBAD5Ebpr+WRVUQzefvZCYYxegMSwxbs2/d7GKGBE30Y7V5xqQwMMUzc4AbiBuH762A9Nav5pRg8CbV3fVhVJZ0f7jdZ9/zb/3qMHAQRvsaERhqkbnADcgNBTi8A1ufkDgD4M6LF3qaieR3509pkwhtdBz92Bsg6/t4wC+sgaum/1chsaY5i6wAtcuQHDeENLmH+ayCGgvfdWAFWsfjpGqLvzJgz9JefVOv7ekcOA59RbAVS5jHdzsWfbws4ZZy54X3BC6GLh9cwTGrz6aPS30YHYPS/ctfO2s7+FhNMxMtnwLCCHoSdX+LDvWByGwn3U3Wz+adpmA9BWiXc98UQ1p0d+uOYNwc7oQxh+1fSqA79320wgGFgr3vLEb21ovGE4+eA7PzFuWtdXCx5gyNHh1wb/sfMt9/y4jmExJeAuIKc52jaxsh2rStAI5g+AIgdBvtAPqzo3DC3Y4/8uRg+bX1UUWVZLpQ+JHgZk8NZW3Try9kvgSTx58d3jpnV9FZQAEv1AdD8QeTH5FTsAJI4BGto6ZnXdNvLwhf/hdMzMGJwAnGZ0uBeoZL/aIjSI+YMIMOKg2Ml5ibtWvrXS02OL1rwdiROnQKanzjr4e8sEEDvei7vPqfj3aHRuvwSeiz7znl942wMXIH4EiLwMJI4nx0fISH4Zw6mk8BJgDKBtYscXTu5859ucjp1JwgnAaTz6UiU6DWT+GdXIEXj8bbeEK1go7vZL4PF3+b89ttWjC37vaD/g897USncBFIb2V5+++D5vm/fNiL4C6FZLcJj+P5IBxI8AiSPonN1xx95wb7BuwTIF4QTgNCUXgSuDBjL/tDQBIKlDxo5N/OwZq/++XIkL37/hb0T82FTIhD0xVqNJOhA9Nhk71/yt+njcB4Wh6RdcfJ+v3X8eoq8kK/78o6xP1gcgaLB9/Kplb7Q1SKYsOAE4DlW4DWTu6S4xwZKSlK1Mqa/IUWha4IZyFoqjj6zw+YPiBkT67YmxFs1YPwDtm3Q7PMrCcSFp8/e2+89Pmr/V+FWJ/4+Jo/CP95Sd9Bn74ATgIEQQkHoZ+wAUFlCPjZV/Sj7p/eneEgMU7Q/FveM+VUom8bbAhxHt7y5/o/eKgqzxdAnE+jsROuef1MTjPpLmf8nOmswfAMhAMBjlOwAXwAnASX61YlzVM4Aa0Pzzqn9Kvk3RY9A8vi/1b1vYWVDma/MCvqD3K4j2q49R1e8dOwZ4tGvtXPbaKSgMTX/nJfd6231vqcn8M0Qn8ziA83ACcJKINhNUxbMxDWj+6SYy1T8h+RQKJY+To4c8XadOLLjZipw75VOIHAqW3uqx4iDVakUOB9DecblCUcfJmH+b761qzB+AjKJ74aKpSgJkqoYTgJOI3EXgyqABzT9d8Of+QDT2uogPAF5cOnRz/kJxL3xt9TjNI/4TseOqg1QsR6mtI7X/pPvPb1cr7gy2mD8AkA7ZJiv//DNK4QTgJLpcUdHxDWj+QOpx84LVfyoREEAjh+BrG/ffuXKnnOr9HKKHPcqrdZVkfmcCIoc8MIbCahuoPxSGpr/j4nuUm3+KQKdUMwWaqRpOAI6iryn70AY1f8r9IZ0IyKL12BAEjHefvGXNvPRLJ29cMl4TdEXpjd4rClKhFvL/NvETgDQ20wMrutQ2VD9Ss31+7u3wv80O8wcAfxAraxJgaoYTgJNIubas4xrU/IFUoZ9T/Yuc6t8cDkUOIhDy3ZQ+v2PahO3JzV5UxVunRfcih4C47xq1jdWHjPm3+99hl/kDgCdglF8AMbbQMk8uug3atTGIoy9HrC8u84GNa/5kairZzSOyDJ/MCUCKTKIQHXMQG6LVCV/itQkTQwcw+IKqIBXppOVK6HWeCkjPVHHhY4eLH+ge6mX+AABPO/Dl//WKO2CoEWQqhe8AnGI0PmVsLZsCNLD5ZxA5ff+pEMii+k+PC9DoQfi7278/fsK4rxfe6rHiIBXppOXK0IscArzeb6pt2D7qav4AIOM4sGkTzwRyEE4ATiFH5xa9mJrB/Cn7y/JIApC6M6D0LYMegxYdXCSHou9CQsX+8Q6YPwDoI4ARuZDuO6dXbQDqSZn/z+pm/gBAcQSmiVPUijKVwAnAKUgvvIlIE5i/2ftRrPpPkxosyCwXdPggEgcPKVgo1SHzTxM5CMDzPbVBqIXC0OJJ87+gbuaf0gu14TTFwkwFcAJwCqmvtny9Ccw/3WRm+me6+s89xVT9mxeKEzpBxhKg6CgSJ2sKspaTLeSq0DOiQGJkI/185RK1waghNdXzp34HzB8AvCHJM4EchBOAU5DckP9ac5h/oeo/b/pnpu+fMncFAgANjekbgwBVNUToAvNPEzkEePw/UBeMGlLdPnd5O/zvcsL8AcAbrG1bUKY2OAE4AIWhwdBnZb/YHOafbtaq+hem95MvCpA5IxCgJShrrTeSqOIuwEXmDwBGDNAHz6BfrFmlJqDayZh/u/9Cp8wfALw+ufj2S5p7BVU3wwnACZav6slaBK6JzH+s8geKV/+pKT9ibExACEAO57dhDKKCBUBdZv5pIocB0m5VI1YbbjH/5MsJ7axN509Q3BhTJpwAnCAoZwMpR2si8zc3nVneIf2aeconAYTUgK+5+o+TdXcPAYkTFTSuCpV/G5kAYgPz6H/OebM60cqhMLT4O1xi/gAg4+ieqvcqbpApE04AThCPJfcAaDLzT/t5sqsnu/o3/5vpDiqj+k9jDCc9tHjrCrHjbxM5Avg933dq68ik+f/1T/wdLjH/1PueoIdnAjkEJwBH0M9uNvM3N1+8+qdMd1BW9R+TxQd7qcC2s+aGVWHX34Z0IHp0Ou495yIbGijeehha/O3vvtPfEfgr95h/El8ofqbihpky4QTgBIZxrnpRZ80/4+epwd3c6j/zE42tBmqe+WMMl27DGIXFw9MNYv5pYkcBzXMjhet37YXT5t8ZvMht5g8AAZ4J5BicABzBqH0j+CwcrvxzQqB0P5Cpyk/P9smbApqq/st64IsA/XjOCyqpx10ZGUDkSA9Wrf6QDY3lEQ5Du/LtF93hVvMHAG9QnEm8LpkjcAKoM3T/+e2QMYXT3pw3f7OpU6rCH1sB1HREDdV/GiMCyGhWq2qoZ5dc/BhA2g305AqfDY2aEUnzD73breafPCXh23fNxoZdOruR4QRQb2hoGowSi8CVL6ZIxyxZzQWcNvtUEWeq/oVpto9l9R+RFf8aieMNbP4AQBKIHgnioO/jNjScRkQfv+hO15s/AMg42mZ5ZquNhSkHTgD1JjYyr/RB5eAO888y9bTRZxKCuV8ou/oHAYKS/fqVxiijgDFScagF9dRThmbsOKDRNvqeLRuji9gTF90eaATzBwBIBELeRcpCYcqGE0C9IeN0BSK1S+RJVqlZsPqnTDLICtc0U0hUWv2bYtTLei6gfD11lKtJQOSwF1Omfk5xACL2xEW3+ztCFzeG+SfxdyTOUhAIUyGcAOqNTNS4C5J7zL9w9Z+s/UV6WI/GNntJJwSNABmpPkYZA/QKxg5K6amhQs3k1pGfpZ+t7VQUgIg9cdGPG838AcAXhGuWyWglOAHUG6L1NZysLo6MZA2a5uo/M/OHspJBJmQx9j0RgJEKqv8CMerHUd3/EjeYf5roYQGvcZWCAETs8Ytu83eELmk08wcAj4+sV8dlbIUTQB2hJ1f4QPHxVZ6tNhig9so//UPa2CXlR5m12UvyWI9Mz+SpLUbSAb3S/WLcZP4AEB8EpP4vdPeKiTUEICKPXXSbvzP0nkY0fwAQItH2bHhJh1JRpiScAOrJ0baJWYvAlY17zB+w3uh9LAtkm/3YCWPN0kiZu7yUEaM+gPL/97jN/NNEDgJa8IYqzxaRxy66LTiucc0fACBj6Fk6Y6Z6YaYYnADqycjIHFClW1y5y/ytqn9K7eRVXvVP1h5VZYxklLlctFvNH0hvHfmeyO0rKp0K2RzmTwSQgVCQFqgXZ4rBCaCeePSllZ3gLvM3S2Sqf0mmwd4S1b9E1mYvqmI0TqDEOkIuNv+UFI0eRCAYuLGCs5rH/FN4AzFeE6jOcAKoJzJWwRIQ7jN/c08PCIA0LeyWe6BV9W9QiRU9q4uRJKAXugtoBPMnAPooIIfPoztXlDMfXsQf++tbm8n8ASDY4VW8RApTCk4AdaXcGUDuM/8M5i5/k2Thjd7HfpSlqv8aYtRPWtwFNIr5pzRp9DAMf+DmEmeJ+ON//QPfuMB7m8n8AcATIhsWSWSKwQmgThBBgPQy1j13sfmnTV8W6PPPHJNf/WuJApu9qIqRgIR5uehGM38SID0GSgytHL319EJz4pPm3xl4X7OZPwAImRi/N2zLk9FMATgB1Iv7VneWngHkXvNPez+ll/osVP3n9P2n3yta/SuK0RhCcuvIRjT/9LjKyGF4Qx23WJzV1OaffC+G0GkLpqlvlCkEJ4B6octZxTvA3Wv+SS1AmJZ3KFj9Q+Rt9uIpVv0rjlH5QnFpYYVSBc1fAqTHQbETC07efNZbTGeJ2GNp83+1Oc0fAMiAaJM8E6iOcAKoFyI6v/Cb7jb/dOWfVCy20XvqX9Nyz0CR6l95pU5lbB1ZuaZKqaLmLwGSAnLkCALB0HdSm8aI+OMX3ewflzZ/qyfo7Eh6ztDZWelMOaYWvE4H0DJIvcBiV+42fwCAHHN8s+FnxngzFb/IbpqSG71Lq0cfbDD/NInjQGCKWk0VUuWYP0mASAdFjs8Ymb3672O/n77J1xn6QH3N37nPpNcvVqpvnCkEJ4B6IaXFDAf3m3+68k+afc5Wj1nV/9hqoEkTS51jtdG7jeYPAHI02UuiBdRp1kRF5p/6PjqA4FnLbvR0eLVWMX8A0Hy0Vn0ATCG4C6heSCPng+1+8zeX++kunbzunlT1n+4OMr+uxWT+g882m3+axHHLl2vSrFaqYvMXXgSXn4VWM38A8HjkzCc/Art3SmNScAKoA7RrYxAyZpre5vyFVobgWM9Oqnsnq/oHsqp/kT4kZXgaLLZ6rJP5A0nPNCpZbroMzWqkqjL/M86Gp7sbrWb+AAAZxbRzzp+qPhjGCk4A9WA0PmVsG0iXXGjFBU39+mNNVFL9I3ezlzqaf5rKl4t2ifl3taj5AwDpaJuAuWqDYQrBCaAeyNG5eY6qCpuMNdvsc2b+ZB2ev9G7JpL98HbHWAoZr2TLSReY/+ktbv4pRJu+RFEkTAk4AdQD0pe58UKzEBz7x1Txp5/9Sr+XXg46exDY9K95sxeHzD9Noqzlol1i/q3a7ZNDKGjwTKA6wQmgHsiE+t2ObDRWs6lTqsIfWwHUfEp+9S+kaatHh80fAChRautIZ81fCg+bfw7eoMZrAtUJTgD1QBoblOrZaazmfn3zRu+p90pV/5mN3l1g/mkKbxrjvPmHTl/J5p+D5pULb78EHmWCTEE4AdgMhaHB0GepE7TXWLNMPW30Rap/8wCwJ139u8j8ASQ3jRlUq5krxeavEBnF2ee/qZYtMpky4QRgN8tX9ZS3BVYZ2G2sudV/Tt9/xuhMp2XeJiS3enSZ+acxTsL0TIIbzJ+7fQoIAhRH13jBM4HqACcAuwnEZyWXqKyROhhrXvWP7Op/bOcvk8ml3tQkQUbdaf5A8i5AH1SrWZv597D55wtmvvPxTKC6wAnAbhJGGXsAlKAeVXWl1X/ORu8YrnSv4ypirBH9RIk9CSqBzV+1YNZP3g7w9pB1gBOA3VBiRW3n16Hyp5y3TdV93tFWm70YUlkvV6EYa5ckQAKJEyq0qjB/aGz+hQXzXvH5cY7iRhgLOAHYTd4aQBVQp/709Mwec/Vf7kbvIALK2ei9xhhrkxzTNAZRW49cteZ/xko2f2tBy1c9fjqDxu5BGZvgBGA7RnUbXdfpQsut5rNm9uQdnFv9E4RexkbvNcZYm2SOJuVsHVmRFpu/YsGC7wiKeQ58ZU2P4gaZHDgB2Ajdf347ZKzy+cz1nkkjrKv/vOSQOhYpEyQApKz6r59hGcPJZSIq02LzVyxY/G0ZR2B2+xzFjTI5cAKwE+PYVBgVlsf1vNAo/8uy+ifkVP/JA7U4KZngVHfDqvQugM1ftWBZxwRCcpHihpkcOAHYSSIxv6ILss4Xmtn7i270nibzGHDqGCXVvzOGJUcKeHKeFpu/YsGyj/S1GzwTyGY4AdgJGaeXf2ydL7SU84vU95YzfjLHpUwvtTUkSUBEVUypdNawSs4Iqtr8ebZPAcGKjvaFBM8EshlOAHYiE2vKOs6BC61Q9Z/uAsrr+8+YYOonq60eFcdYuWRlmnIUMArdBdRk/uPZ/PMFKz7D6yNeFdRmOAHYCcn1pY9x4EIrUv2L3OMgkpW/KSFoUYutHlXHWLFkdZqWW0ey+asWrPK8eHDPtoWdSkNhsuAEYBP05AofZHx88YOcudBKVv+ZAwWIaGyWUCppyKLLK6uJsTLJ6jUpmrNpDJu/asHqT5VxhE6dPltdLEwunADs4mjbxKKPxzp1oY05f+Hqn9LvUd7xInerRztirEiyds3MXQCbv2rBGs+XGBcILFASCmMJJwC7GBmZU7CfxMELLe3nSbMvXP1nQs+t/kfsj7F8STWaFE8uFFeb+R9g888WVKISbI+coUSIsYQTgF1ocevVDJ280EzVfHqgN2eMN1kFS8o7HgSIkWqrf/cbVvIuoBbzj1iosvnXirdN8ECwjXACsAtK5H9wHb7QMn6eGtw1V/9jBxGytnpMvSQoZ6N3m2IsT1KtJhFABqXuAtj8axRUqubxEW8PaSOcAGwjZwaQ0xeauZpHKhzzcs9IVv55K4Om/hWj1Uz7cb9hmbt9EgMCZLD51yCoXE+IRNeT4RVtioWZFJwAbIAIAlI/zfyC4haqP8NU/WeN8WYm+OdX/1pV1b/7DSu3z1/qya0jSy/pzOZvIWiPHsUw5bTO6YrFmRScAOzgvtWdmRlAbrjQUi6f/EfkVf+CKH/pB1P1j5FKq3/3G1ahAd/ECUDqRcy/h83fQtA+PTLQ3qHNV9wAk4ITgB3ochZkwjUXWlb1n04G6YRgjjGn+geltnq08jrFMRaXrI/5g5DcOvK4lfmvYPO3FrRdzxuSyxU3wqTgBGAHMr7ANRdaTvUPYKz6Tz3hW6j6JwIwUkm77jesouafMvz4MCCNXPOfwOafL1gXPb8PPBPIJjgB2AFFFa9iWP2FVrD6p+R6/uaN3scSBcaq/3JWzKwxxsKS9Td/mboLSAyw+ZcQrJueLyR5JpBNcAKwA1L5ga3hQsut/tN9/6bR30WSy/cAACAASURBVKzqX5iGBggVbPXofsMq2/xT3yciGkLL2fwLCNZVT9OMaU9+BD7FjTLgBGAPtewDnEUNlT+Zzs6U9WOVP2BR/ZtMUdOpzF2z3G9YlZo/aRq6Nq2AZzybv4Vg/fVkDNNXvHma4oYZcAJQDu2cF4CMBxUo1XR2ZqVPmKv/7Mo/bXpjJ4w1Xd5yz+43rKrM/80r4JvK5m8h6Iwe6eicQacqbpwBJwD10OSpMIosAleeSG1n5w7oEkCg7LsCpJPEWPWfPl4kCFRyJ0v3Gxabv1JBZ/UC8aWKA2DACUA9saHe2i4WNRfaWDe/AIiS3T3mfn9zUyLn3JJ9/+43rGrMf9yb2PwLCDqu5w1qPBPIBrxOB9B0eOSy6k+u/UIjU39/aqJ/ttmbmiLTzJ/0ayJGkEW3enS/YVVr/v5pbP4Wgq7Q87ehvN31mIrgOwDVGInV1Z2o8EIT2aae/te8AqgwHWs+tHjfv/sNi81fqaBr9DTNmEeXwKMwGAacANRDxoYqTlLUtvkrv8/ffBxZ9P1rEVlko3f3Gxabv1JBd+nJGF7dcN4UNbEwaTgBKITC0CD1CrewU3ehjfl/qsYvs/pPdxsV3urR/YbF5q9U0H16lED7VKO3diHGDCcAlSxf1VPZDCCFF1rKxEWqUz9voNd0XLr6NycIES202Yv7Dasq89/E5l9A0LV6wU7DepMlpmo4AajEl5gJ0ss8WLEJIln5J1WLbfSe+te83DMKVf/uN6yqzX86m7+FoKv1tHZaoVSQ4VlASqH4aaUPApRfaGknT31vNsH07M+x/n6R3TwBGLWq/t1vWJWav0w94dvw5q/c+AG3mz8AeAOiygkWTCH4DkAlhlFGhaL+wkhX/qU2egeNrQaaVf3nbfbC5q8wUsVyDRCjLf8fAa/PWE55T60wtcAJQCVSL7EGkE3GSqZvzX3/pj5+82wf8+vI2+i9Sc3/jWz+BURdrmeWjmuvXf+m8fY10HpwAlAJGUWeVrTn4k37uVX1n9WqVfUvc72wic1/Bpu/hajL9XKQCQQm0hx7G2ktOAEogu4/vx0yVuBBFZsuXlM1X1X1HzFX/2z+CiNVLNcAMdpt/qk2POPk4jo01DJwAlCFcWwqDKsV1Oy7eLO9O6fvP+twi43epbnvv0nNf9NZbP7Woi7XK0xbkM6qW2MtACcAVSQS8/MvBBsv3pTLZwr6dD9Q6vXMvi+Uf2qm79+uGN1i/tMnsvnni7pcrzhakHhNIIVwAlCFEctZBM7ei9dc/VPOhi4lq38jvdVjk5r/G9n8C4i6XK80vjbwHYBCOAGoggzTNpA2X7ym6j9ro/dyqn8JYDgvTSgK0SXmP2MiEHuNzT9b1OV6ZSJjgRe+tnqcM403H5wAlEHrU//aoW39E419lVP9g1IbvcdbwPyNvIcbwObvVr0KkAkEpwbmOBdAc8EJQAG0a6MXMj6hLgaTW/3n9P1nDLJQ3/+ghHJcYf5nsvlbi7pcr1Ikujvb5jscRNPACUAFoyMTYURtEM6/2PKqf2RX/3kbvWPMPIUuIctdqqjsEB02f5E2/0ls/vmiLterDi0YPdPpGJoFTgAqiBq9INWVtcXFVmn1b97sRRJo0N2mVZX5b2LzLyDqcr3q8QWNc5yOoVngBKACES1zEbhysaj8c7t0cqr/7INzNnuRBC1BRTZ7qSZENn81cg0Qo4vMHwB8fvCicIrgBKCEhMINq60vtszMHlhX/1lPAadPADIGU3yrx0pDdIH5c7dPIVGX6ylAJDr/3Le83ekwmgFOACqQsoptIK2wvtiyunXM3UA5hyeThKn6TzmpiCms/t1i/jPZ/C1EXa6nCIpj+qxJM5wOoxngBFAjRBCArqALqMTFltnEK/mNSFX/eWsApY41G4yy6p/NX5FcA8ToVvMHAJLwdEueCaQATgC1ct/qzsq2gbSiyMVG+V9W1X/SNNPVP2VeE1GpZnyazV+RXAPE6GbzTxHwytOdjqEZ4ARQOzMhrRaBK5fiFxsBpnXeytnonbKOkSM1hJYJgs1fjVwDxNgA5g8A3iCtcjqGZoC3hKyV2OCC6k8ucbER8g2/wHHJ6p/G3idARBRU/2z+iuQaIMYGMX+A4G+jc0sfx5SC7wBqhajKh1JKX2zmnp9i1X/mP6ZxAZDVVo+Vhsjmr0auAWJsIPNPkpi0N9wbdDSUJoATQK1QoopKpIyLLWXiIvV93kBvrlTO3YKw3Oi9khBdYP4b2fwLiLpczy5McVIc3QsXTXUuluaAE0CtkCyxD3DeCWUfZVX9E3K6gtLfiLG7AiFrrP7dYv6z2PwtRF2uZxc5cZIBIxSd50wszQMngBqgnfMCkPFQBWeUf5hV3z+ZBnsJWbN9sqr/SA0d/46bv2DzLyzqcj27sI7T124ss3yDKRtOALVAk6eWPwW0/Ist7edWG72PVf+ErI3eUyaqUYFl8MtqmM1fjVwDxNjg5g8AwZA4u46BNCU8C6gWYkO95V1IFVxspmo+b6A3U+VT9pPB5nNHqqz+XWD+4zaeCf+syWz++aIu17OL4nF6A1Rh9yuTC98B1IKmLy19UGUXW8bnCcit/rO+s6r+M1s9VohLzD/A5m8l6nI9uygdp+Y15tAl8NQhmKaFE0AtUKLEqoQVXmzmKh9W1T9ZrguU+X6kioubzV+RXAPE2ETmDwCQcRzYtIZnAtUAJ4BakPINhd+s/GKjrG9y+v6zMoNpq0dz9R+vtEEXmP8b2PwLiLpczy4q6S5NIDDRf4p9sTQ/nACqhMLQIPXZBd6tQjD5lfwnaZ5jyz1T0Y3eBZDa6L2S9hw2fyBp/rMnA7HX2fyzRV2uZxeVxxnqEIr34mgtOAFUy/JVPdYzgKq72LKq/3QyoGTln6WYU/2DAKFTZcsRucH8N55lMn+rBYsawFjZ/BVSXZy+kMEzgWqAE0C1+BIzQbkb7FZ5seVU/wCydoApVv0TobKtHtn8Fck1QIxNbv4A4AlhjcJAWg5OANVC8Zxbz+o/xNbVP+WOCSNro/fUmxVt9cjmr0iuAWJsAfMHAK9fLrmdZwJVDT8HUC2GsWLshxo+xLnVPyG5pLPMec/URHpoAED5m72w+SuSa4AYHTJ/ImAk5seRwTb0D7Wjf6gdQ9EARmJejMb9GI15ETe80A0NuqHBSE1l9ggJr4fg9Uj4PTraAjra/HG0B3R0BqOY1DmCyeNGMalzBO2BeHIzpDQyjjPXrx+POx7pd+SXbnA4AVSLTC8CV0Pln9ulk3JQ81o/ItPXP1b9p48VcYIsp/pn81ck1wAx1sn847oXe/u78PqJcTgy2I7+oaTpR+KVW4pOHugSQAIA/DheZA+LkF/HpM6RTFKY3j0I6vafBuB/q/xVWhpR+hDGCrqzV0disLZbz8xAb9JIIZMd/iTH+vzHDD/5p8qs7y8BDMjS3T9s/orkGiBGG81flxr2H+3Gi4d78OLh8Xj1eBckucU+SBLh90KIB4UQD7a1tf0uHA5X80hky+GWv2BDQfef344TTw9DVr8VJOUM7poHedP9+5mfpUX1H5WQQ2U0ohA2f6WiLtcDjgy24ekDU/Hi4R7sP9YN3WiYIcMYgN8CeFAIccf27dufdzogt8IJoApo54pTcXLfi7X2/Y9V/0hW9BbVv6DU3QGyq386LpPnFNRn81cj1wAxKtQbifnw51en4Q97p+LV413KdB3mcQA3Syl/fPXVVx91Ohg3wQmgCuh/lrwFkYO/qPr8TH8/krN9UoaafCHnjsCq779U9c/mr0iuAWJUoKcbGnYfnIg/7puO3a9PdFHXjnISAHYKIW6ORCL3XnfdddXfwjcJTfuXthO6a+EViPVvr/r8TNcOJWf+yBxDLVL9CwnIY0V2+3KD+W84E4HeKWz++aKu0huM+PHw8714Yu90ROI+RTE1DAMAvptIJK6+9tprDzodjFNwAqgC+smpP0V84K+qOzld2VNm8Lei6n9UQhaaJcHmr0iuAWKsQW9gJIiH9vTiib0zGqlf3y5iAG7UNG37tm3bXnE6mHrDCaAK6M7eo0gMTqjqXEpW/klEss8fKFn9EyWrfzpeoPp3hfmfgUDvVDb/fFFX6B0dasODu3vxx33Tm7mbp1p0ADcDuKqvr+8Fp4OpF/wpqBDatdGL/hcSMKrYdstk/lnVf2Y8IL/6z7wuAW1EWu/2xeavSK4BYqxCr3+oDQ88cyr+/OqUTFHBFEQC+DGAf2+FRMCfhgqhe1dOxdDeg2NTcio4V5p28jJV/5lpn+nvZfL95DnJ1zQDkAMW1b9rzH9aaklnNn+TqKN6CcODB5+bi4f2zIEhW76rp1LiQoi+tra2/wqHw1ZL1TYFnAAqhP5n+WpEDvy+4hNl9hO+FVf/wzJ/ty82f0VyDRBjhXrPvT4JP/vjIgyMBBXH0XLsE0J8cvv27T93OhA74ARQIXTXwn9ErP87lZ00tpNXch0f6+ofKWPNnGau/o/LPE2VsPkrFXVM7/hIG372xwXY/fokxTG0PPcQ0Sd27Nix1+lAVMIJoELoJ/O/jvixfy7/BBoz0cxLY9W/+enfgtX/oMze7aslzd8Go24i85cksGv3XPz62bnQubvHLqIAvtze3n5VOBzOXQu+IeEEUCF056nPIjFQ3i5ERJl/qq7+dYIcoDxNVbD5KxV1RO9kJIhbf7sU+472KG6fKcAjuq6/95prrnnN6UBqhRNABRBB4M7ZEvpwWQcn/62++ocExEk5ttsXm78iyeYx/z0HJ+C23y/DaOs9yOU0RwF8sK+vr+oVAdwAJ4AKoJ2rx2Fo38mS+y+aDIbI/GN+9Z85Rpq2erSq/tn8FUk2h/lLErj/6XnYtbtXcdtMhVzV3t7++UbtEuLOwkqQiRmVmD9MJp95S2S/np0gxl4XAGiIzV+tZHOY/4nRIL7x4Nls/u7gM8PDw7u2bNky0+lAqoETQCUkIguLvp9jMFm+nl7WgfLyAnI3eicCRIKSWw6z+SuSbA7z33+0C9fefw72He1W3DZTLUKIdUT0p82bNzfc/sScACpBGmcUfC/XYEwDvNkbvSe/im30DkpV/2z+iiSbw/z3HJyIbz10Nvf3u5MJQohfX3755W9zOpBK4ARQEcZay5ctDIZyfyiz+gelNnrX3WT+9Vregc2/EH/cPw03PXImErx4m5sJaZr2882bN3/A6UDKhT9NlSAtEoCVwZSo/jOma1H9EwE0WPkyE8WoyvzXn24yf6tZT2z+9dJ7+Pk5uO33SyHt+HUY1XiFELds3rz5U04HUg6cAMqEds4LQMZD2S9aX5Glqn+RnntlWu45Xf2LmKxmmaHCcVdr/nOns/nni9ZVjwi498/zcc+fFihul7EbIcTVV1xxxTa4fKYlJ4ByoclTs/YALmQwudV/qnunYPWffi+tOazOZNj8lYrWVY8IuOsPp+F/9/QqbpepI1u2bNnyTbg4CXACKJfYUG9WP40FeS+bu3XyDh6bFZQ+SETUVf/VmH/n+uVs/taidde776n5eOylGYrbZeoNEf3T5s2btzodRyE4AZSLpi8FUNRgMjN7YF39Z97Lq/4JkCi801eFVGv+wbkz2PzzReuu9/Dzc/AQV/5NgxDi024dE+AEUC4yvqqYwVhV/2TxugByqv/UgZEi+/xWAJu/UtG66/1h3zTu829ChBBXb9my5YNOx5ELJ4BykXJjqUNyq3+RqvDTff4mbx67XUi9Rgq2nGDzVypad73dr0/EHY8vVdwu4xaI6LtXXHHF252OwwwngDKgMDTIxOyC76cHeDMvWFf/SSNOV/9j5o/R2qt/Nn+lonXX23+sGz/47ek81bO58QK4001PDHMCKIflq3pgxIofk1nIc2xFz9zqf2z2p2lU2Ki9+q/K/Nex+RcQrbveyUgQ33v4DH7IqzUICSHudsvaQfyJKwdfYmZyYR4LyPQFU1ePxXFJc6asBFFr9V+1+Z/C5m8hWnc9SQK3/paXc24xJkgpfxQOh71OB8IJoByM6KJCb2X7f+HqP/Mf07iAMACKVB8Wm79SUUf07n96Hi/s1oIIIdYNDw9/0ek4OAGUA+lnWb+OjKcDFgO95uOQM1ZAAI1UP+mfzV+pqCN6ew5O4CWdWxghxJVXXHHFW52MgRNAOUh9vdXLhar/9ABwxgbSppVV/RMoWl04VZn/2mVs/taijuidjATx48eWKW6baUBuueyyyxx74o8TQDlIY1Xea+ZqHtnVvzAdk5ztI/Kqf4xUZzxVm/+pM9n880Ud0Uv2+y/FSIz7/RlM9Hq9jo0HcAIoAd1/fjtk3JP3euorafYFqn8igLJXAyUChE6gEpOKLGNh81cp6pjert1zeQN3xsz64eHhTzvRMCeAUngGpsCIZ79mquazDX/sdUga6yIyvS4IVS34xuavVNQxveMjIfz62bmK22caHSHE5zZv3lz3DwYngFIMReblXuDZvT/Z1T+Q7vYBQCJ5h2Cq/qETqMS2wrmw+SsVdVTvZ39cCF3yZcfkERRCfLXejfInsRRG7PSsn4v0/ZtvB6yqfwDAUGWGweavVNRRveden4Tdr09SHAPTRLxz8+bN76xng5wASiGMrMe2sy/53L5/c2bIXg2UCNDiVPB5MivY/JWKOqqXMDz42R8LPk7CMAAAIcTXwuFwW73ac/xJNNdDcsPY98hU90DKpwQACUBSznLQpnNSh1EF1X9V5n/uUjZ/a1HH9R58bi4GRoKK42hMNE3DsmXLsH59cnb1I488gqeffhpSqt0KtUHpHRkZuRLA5+vRmGt3qnEDtGujF/1/SUBPPq5LpgRA5u0cJSVn96SOSRt2OjkQASJKoMHyjKNi8yegc+1SBOfNYvPPF3Vcr3+oDV/5xRoYLd73HwwGsWrVKqxbtw7d3dlPP584cQKPPvooHn/8cUSjVT4g0zzEASzt6+t7we6G+A6gGKMjEzOLwJnN37zRu5F8sWj1Tyh75g+bv1JRV+g98MypLW3+48ePx9q1a7Fq1SoEAgHLY7q7u3HBBRfgvPPOw+OPP47f/OY3OH78eJ0jdQ1+AGEA77e7Ib4DKAL9z/LVGH3190CB6p8os95PXvUPZLKBiEjIoTLaY/NXKeoKvaNDbei779zkZ6bFmDNnDjZs2IClS5dCiMp+fyLCM888g4cffhj79++3KUJXIz0ez8KrrrrqRTsb4TuAosROA5Bf/WdcOfc9CwiQVr6cexibv0pR1+jt2t3bUuZv7t+fPbvgFholEUJg2bJlWLZsGV555ZVWHCfQpJSfAfBhOxtpnU9mFdBP592AyLF/yav+0w95lVH9Y1SCSiQANn+loq7RGxgJYtu96yBbIAEU699XRQuOE+iapp26bdu2V+xqgO8AimHob8ir/iWNzfxJvZdVk6TfQ+q8Ehu9s/krFXWV3kN7epve/Mvp31dFC44TeKWUWwBcalcDzf3prAEiCLpjlhSJ4bHBXTnmW5m7gszPFn3/IxKySAKoyvzPXYrgfDZ/C1FX6Q1G/Ljq3vXQm3SXr1r691XRIuMEMQC9fX19h+wQ5zuAQty3ulMYe8fMP23qIpkIMiYNUxY1V/8SNpj/EjZ/a1HX6T38fG/Tmb+q/n1VtMg4QQDA5QCusEOc7wAKQPectZhO7H0OQGq2T3aFn+7/T75v0fc/LAvu9Vu9+c9m888XdZ2ebmj4z59vQKRJtnmsR/++Kpp0nGAgGo1Ou+6666pYQ7g4fAdQiGhkIUTK/FMzf9LVf9r8C1b/RTZ6Z/NXKupKvT0HJzWF+dezf18VTTpO0BMIBN4O4KeqhTkBFEAaxhnC9GSXybezyKr+08eMWt+CsvkrFXWt3h/2TVOm5QRu6N+vlUAggPXr12PdunVNMU4ghPg72JAAGvOvWwfk7b2/pPiJ80AiWfUDWV0/6eqfSCTfS3u+TqBj+WbC5q9U1LV6IzEf/vNnb2i42T9u69+3gwYfJ0h4vd5pW7duPaZSlO8ACiLXmQd6y6n+SQLCYskHNn+loq7W+/MrUxvK/Bupf79WZs+ejfe///2NOk7gMwzjbwB8XaUoJwAL6PYlfmkcC+Vt9mKVEEwLvmkGQeYM01Rl/mvY/AuIulyvcbp/GrF/XxWNOk5ARH8HxQmgcUqVOkI/WjpL6q+9kpnpk5ntY04AFjN/TkiQaffIqs1/AZu/hajL9YD+oXb07TxXua5KmqF/XzWN9DyBEGLR9u3bn1elx3cAVgT0U6Ajv/pPv2/e6D293HOCFJj/aWz+1qIu10vy1KtTbNFVycc+9jGnQwAR4emnn8YjjzwCAFi/fj2WLVvmWEIyP0+wZcsWR2IoFynlxQC+rEqPE4AF0jCWmw07talXJgnkjQkQspZ7rt7857D554u6XG+MFw/32KbdDMRiMTz++ON49NFHMTAwkHl9//796Onpwbp161qyS6oShBCbwAnAXkgaq4pV/wKpmwBz9Z/a6L0q8z+Hzb+AqMv1xtClhv3HmnsQtVoGBgbw6KOP4oknnig46DowMIC7774bDzzwAFauXIl169ahp4cTqgVrw+FwMBwOKxm95gRgBdEbMj5u6ucvWP0PpQ1/7M2KzH8hm7+FqMv1stl/tLvpln6olVdeeQUPP/wwnnnmmbKnXUajUTzyyCP4zW9+g6VLl2LDhg1NOy21SgLDw8PnAHhIhRgngBxuvwQeyMQswMIyzBu9p6v/OIEMNn/Foi7Xy4e7f5KY+/drGVCVUuKpp57CU089hTlz5jg+TuAmNE3bBE4A9vC2t505HvJAVvVveiA49YLphGHiPn+1oi7Xs+bFw+Pr0o5bKdS/r4L9+/fzOIEJItoE4AsqtDgB5BDoMmbRsJ4x/Ey9YVH9a6MShg6w+SsTdbmeNXHdi1ePd9WlLbdRTv++yrZ4nAAAsHrz5s3tO3bsKLHbSGk4AeRAidhikXL/ohu9y7R384CvIlGX6xVmb39XQz39q4Jq+vdVweME8Ho8nnUA7q9ZSEEwTYUwjLNKVf+QACJju8Nwn3/Noi7XK87rJ8bVtT2nUNW/r4pWHieQUp4JTgDq0TRjrUxlgKzKH8i8QAZAIxWa/2o2/wKiLtcrzZHB9rq3WU/s7N9XRauNExDRIhU6nABykGScTUit/U9A1pIPEskF36JGalmICsx/EZu/hajL9cqjf6jNkXbtpp79+6polXECIcRCFTqcAEz0f2dtJ/QXPXnVv2ngF0SQo2z+CkRdrldmq5RcA6iZcLJ/XxUtME6wEKZFCqqFE4CJzp7haTiZyK/+Cal9gCm50btk869R1OV65TMS8yMSb/zLqJ79++a9BwDYukZ/E48T9Fx55ZUTt27d2l+LSON/chVijBjzBVGenZAEAErO/IlUaP7xg2z+2aIu16uMI4ON3f1Tz/79QnsP1GuN/mYbJ9B1fREATgCq0IzYGYBpp6/MRB9KdgENUf7uYJbmv3jM/PUhi5YawATZ/MuiUbt/6tm/X87eA/Vco7+JxgkWAnikFgFOACY0v76Koqnpn2lvSZX7whDQo1Sm+fey+eeLulyvOhotAdSzf7+avQfquZev1ThBg1HzQDAnABOCaB0haebJSp9SZi8gh2UZ5r+Izd9a1OV61TMUbawuhOuvv95WfVV7C5vX6Ld7L1/zOEGDUfP2c5wAUjwbXuKXxsB4QYAkAIIAI2n+SKS2eixp/nPZ/PNFXa5XGyMxvoQAe/cWbvC9fO1kQq0C/OlNMXW2mAI9BimTU4Ay8/wlgBEqbv6r2PwLiLpcr3ZG436nQ3CUeu4t3Kh7+doIJwBVtAmtl/Sx28u0uQs9Wf0XNf/FbP4Woi7XU8Noi94BOLm3cD3HCVwOJwBVSE9kiaYj9cCXGOvvHyI2/8pFXa6njrjROpeQqv59VdRznMCl1DwDoXU+vaUwjLOTY75Jc5eU3OxFJtj8KxR1uZ5aWmEXMDv791XRouMENfe5cQJIoWnGuWR+wjcz75/NvwJRl+upp5kTQD3791XRYuMEnABUEA5Dg6TFhORKzyQBESMYiXzz71jJ5l9A1OV69mA04T4ATvbvq6JFxgk4AajgUxMX9cj4QMroAUhADsHS/EOnsflbiLpczy4aJc7SuK1/XxU8TlAcTgAAJPxzNEpAppd7jgCGnmP+qxYhxJW/lajL9ewiGadHSOjkcTiW6mmE/n1VNOE4QaxWAU4AAIQ3sjC52icAKWAMSzb/8kRdrmcXY3F6PQS9AYvJRuzfV0UTjRNwAlABSZxFEpCGgBiVkEZOtw+bv5Woy/XsIjtOr0cCCYdCqYJm6N9XRROME3ACUIHQ9NWkC5ABGKPc51+GqMv17CI/Tr9HB9A4TwN/7GMfczqErL0HADi+Rr95nGDLli2OxFAlI7UKcAIAQISVUgIiKkF62vwXsvlbi7pczy6s42wL6Dhe82XYGhTae6CZ1uivM8dqFWj5BPDsv0zqgBEPCgMwhlPmf/YChE47hc0/X9TlenZROM42f7yOcTQm5ew90ERr9NcTTgC10j5tyiwZPwQxSpAyZf5LTmXzzxd1uZ5dFI+zPaDXKY7Go5q9B1pgL1+VcAKoFb8/vpB0QB9h8y8i6nI9uygdZ2ewoacRKkfV3sJNvJevSg7WKtDyCUBoOINGJZt/YVGX69lFeXFO6uQBAMDevYWbbS9fhTxfq0DLJwCKRd8YXJw2/0Ns/tmiLtezi/LjnNQ5amMc7qeeewvzOEEenABqxTNtzupE5wREDh1AoGMEmpZ7i9kAJsjmr5DK4pw8rjXvAOq5t3AuPE6QxOv17qlZQ0UgjYze2X66J3L05mh0ZFVsUCDUpSHQIXJ2hlcFm7+7qTzO9kAcIb+OSLz5LyVV/fuqaPFxgoGtW7cerVWk+T+1JZjxnl88D2D1y9cv3tA1JXDL6ADNjg0DoS4BX5vKpX7Z/N1NdXEKkRwHeOVYl+J43IOd/fuqaMFxgueh4OJq+QSQ5pRLdz98Aio4CQAAEfpJREFU+yU4Ze35p/1daLzv+uGjos0XIIR6NHj8tVYUbP7uprY4mzUB1LN/XxWtMk5ARDX3/wOcALJ4zx0wcMdz3/vtZTNvO+XM8Z8HtE8nDhlaoF1DsEtA81aTCNj83U3tcU4e11wDwU7276ui2ccJhBA19/8DnAAsOfeaAxHgwGf/HF5+7fRF8psxeP8qPgoEOjUEx2kQZfcMsfm7GzVxTu8eVKLjJG7r31dFs44TaJr2fyp0OAEU4fTwU0cAXPTcV09dOmVG563RQbk8PkwIdmvwtwsU/wyx+bsbdXHOnXQCmiDIBtwdrBH691XRROMEumEYj6oQ4gRQBqd98qVnCDjjwDeWva1jknbT6HGaFB8SCHZr8IWsLno2f3ejNk6/J4FZ409g/7HG6WtuxP799B4Gy5cvx1NPPVX1Ov5NME7w2I4dO5TMP+YEUCYCIHz06Z10CaYdeMfSj7V3evqG+8nvCwiExnvg8aWPZPN3N4rjTP1t5k053hAJoBH79632MFCxjr/VOEEjIIR4UJmWKqFWY8+WiZ09p0/d7mvzflQIwN8uEOoWEHkPktUIm78i7E3MLx0Zj28+tFJ9Gy1KpXsUt9J+v0T0xh07djykQosTQI28+KWls7oXeG7SvNikaQL+cQLBzkoGiovA5q8I++/KdOnBF366Cbqh8tmR1qPWPYqbaL/fQsTa29u7w+Gwkl+OE4Ai9l4/f3XXlLYfwIN5mlcg1CPgr+VBMjZ/RdSvS+6bD63ES0fGq2+vBVC9R3F6cLuB9/stxIN9fX1vUiXGCUAhBIjD3176nsAEzzcJ6PIGBEI9GryBCv83s/kror7jMb9+7lTc/8w89W02MXbvUUxEjbrfryVE9LkdO3Z8WZUeJwAbePIj8M1Yt+RKf7vn34UQWqBdQ6BLMw0UF4HNXxH1H4zvH2pH333r1LfbxGzfvr1ubTXDOIFhGAu/8pWv/EWVHicAG3n2spnjJ6/sud4T1N4rAAS6SjxIxuavCOdmYl33q3Pw6vHmWxbCLuqZANI08DjBY319feeoFOQRKxtZcs2B45Pe9/T7Rg4OzzcS9Hj0pMTg6wZig5TvUWz+inB2Gu6K3tfVt88ohYhAtlxv9iKEuFm1Jj8HUAdmfeylFwGsPvCN097UNsl78+gATY8NA6FuD3xtgs1fGc4/g3H6rIP4+f8tasingpudRnwGwkTC4/H8WLUoJ4A6MvOjz/369ksw+9w3n/bh0ETfV4b7jTZfKJkIyhofKBs2fzWS1ewPkMDi6f149rXJ6uNhKqaJ1ji6d+vWrTVvAp8LJ4A6k1px9Jt3f2T6LavWjf8ioF2eiOgItAsEezSLHckqhc1fjWT1mit6X+cE4DDNtsYRESnv/gE4ATjGO7/1+ii+9frmfZ9dfHXnGdq3YyOed8RHDQTGpQaKq8oDbP5qJGvTXDS1HyF/ApG40ts6pgwacY2jMhiIxWI77RDmBOAwvf+1+yCAC/ZeM/+MzhnBH0ZPysXpFUcD7ZVkATZ/NZK1a3o9EivnvoaHn++tPR6mLBq8f78U37nuuutidghzAnAJcy974U8ELHn1m8su7JgovjN6zBgfH0p2C/lKPkjG5q9GUp3mhgV78dsXZ/PSEDbSRP37xYgBuNoucU4ALkIAhP/39P88+RHcO2PDaZ8Q0rd1+LDh84c0hHo0aJZ/LTZ/NZJqNceF4ljZewC/e6l5dqFyC83Wv1+CG/v6+g7ZJc4JwIWc/S0k8K3nrn4hPO/b3QuCV8eBDyciEv6O1EBxZoCAzV+NpD3TcDcu2ovHXp7FU0IV0aT9+8XQNU2z9Uk5TgAuZn74xUEA//T69Yu/5J3k+QENa+vioxKhLg2BDih+jpvNX6EoAKCnPYIVva/hib0zbWijdWjy/v2CCCG+v23btlfsbIMTQAMw/dLd+wGs33/DknUdk703jw7oc2NDQKhHgy+kZN1pBRp201jmn+aNi1/Gk/tmgPguoCJapH+/GFLTtKvsboQTQAMx52PPPnr7JZh/7nmL3xca7/36cL/s8AUIofEaPL5qDYbNX6Fo3isTO0Zx+qxD+NMr02xor/losf79Ytx21VVXvWh3I5wAGozkg2S7b9n1IdyxeNOSfwO0zyYOGpq/XUOoS0DzOjl11A4a1/zTnLfkBTx9YAoMyTOCCtGC/fvFiAMI16Mhvi9tcHZfuWjChGXaN7xBz8VCAIHOEiuOZmDzVyha8oj7n1mAXz93ig1tNzaXXnppS/bvl+BLfX19n69HQ5wAmoS/3DB/cc/EwA89PnGG5hEIdmnwt4sCTxSz+SsULeuohOHBjl+sw8BIyIYYmCZiX3t7+5JwODxaj8Y4ATQZr96w5K3BqdpNHoEpXl/qQbKg+c/M5q9QtKKjn3t9Mm569Cwb4mCaBSJ6144dO+6uV3ucAJoQugSe189f/NHQeO/VEAj4AgKh8R54fGz+CkWrOut7j56F3a/zQnGMJXf39fW9q54N8qhUEyLugDHjn3bf8OrvjkzQh+m6RIwwdFDHyHEJkm5OAs1t/gBw4Zm74dUMhbEwTUKUiD5Z70b5DqAFeCE8b2bPwsB3Nb92nqYJ+LsEgh2ijIHietL85p8muXn8fAWxMM2C6s3ey8VVFsDYw/zwiwcmvvfZ84cOjJ5tJOgv0QGJwYMSsVG33A20jvkDyYfDeie29Bx3JptHOjo6tjnRMN8BtBgEiFe+u+Sv2zu1GzUNXd6AQLBb5AwU1zki5ZLuNf80JyMBXPvLtRiJ+ZXqMg3HUV3Xz7jmmmtec6JxvgNoMQRAc/7x2Tv3PfD0JD1ifNaIwRg+LDHcTzAS9Y6mNc0fIHSFovjb1U8p1mUakA86Zf4A3wG0PC99+pSujtOD1/sCng8IAIEuDcFx9RgfaF3zN3Pf0wuxazc/INaKENHWHTt2fNbJGPgOoMU5ddvLJ6e877kPHj80Ol8m6PfRkxKDr0vEhsjGRwbY/NO8ZelfeDygBSGiRzs6Or7gdBx8B8Bksffry97QOUn+QNO0mR4fEOrW4GtT+TFh88/lZCSIa+5fi9E4jwe0CEeFEGdu3779gNOBeJwOgHEXX733yP6z0f+1adN79nn92pvjo+TX4wSvT4NW86eFzd+KoE/H3EkD+NMrM3jzmOYnQkRv6+vre87pQAC+A2CK8NvLZobmntkVDnSIK0AQ/g6BULcGzVPNx4bNvxR7Dk7CTY+eDVc/q8fUgi6lfNfVV199n9OBpOEEwJTkz+FTJ09ZELjRH9DeKQQQGFfuiqNp2PzL5Y/7Z+C2x5YrjoNxA0T0wR07dvzA6TjMcAJgymb3dacsmzw5dKvwimWaRyDYrSHQUeojxOZfKQ8/34t7/rxYYSyMC/hUX1/fNU4HkQsnAKYiCBCv3bj47e3dnu+RwCSPXyS3prR8kIzNv1p2PrUQD+3h6aHNABFt27Fjx2ecjsMKTgBMVdAl8Bx++8KPBzr920iQ3xfS0NajQfNljrCh0dYwfyD5q971h6V47OVZSvQYx/hWX1/fR+HSddg5ATA1sWfLxM6e5ZP7fCHt/wkAvk6BULeApin+aLWQ+WfUKPmgGN8JNCapyv9KuNT8AU4AjCJeCi+Z3bkI3/f6sFFoAsEugWCnpuYT1oLmn9aMj0o89Mxc/GrfEhv0GRtxZZ9/LpwAGKUcuGbRmtBM7QdCE6doPqCtW4OvrYYHzlvU/PWYRGRAIhElQGLk3heW/fDpk3P/AYBXeWOMSnQi+ge3zfYpBC8FwShl5mV7fjf+kufmRU7G3yfjODncLzF0yIARr8IkW9D8pQ4M9xsYPGggESWZGMKXn//9yKS/+9ydHwFwIYCI0gYZlUSklO9qFPMH+A6AsZFdH0LwtDcu+rSvw/MFAJq/XUuOD3jL+Ni1mPmTBCInJaInk7uFGTG649iz2j8v3rrnmPm4zZs3rxFC3A1ggrLGGRUcI6J37tix43dOB1IJnAAY23n2spnjJ6/svN4T0N4rBBDo1BDsKvIgWSuZPwGxIUJkUELqEjIhnjx2JPaBRf+69/lCp2zZsmUmEd0GYK2aIJhaIKJHNU17rxvW9qkUTgBM3Xjt6wsXBsZ7f6D5cLbwCIS6NPg7BIT5U9hC5h8fkRg9ISF1QEh5YOgIPjTn0r/8upxzw+Gwd3h4+ItCiCuVBMNUBRFt7ejo+EI4HNadjqUaOAEwdWf/9fPP65jivUlo2nSPL/UgWUi0jPkbccLIgIQeJWgkRkZPxD7+m1++fPN77kDFu8VfccUVbwVwC4CJNQfGVMJRAB/s6+v7hdOB1AInAMYRbr8EnnVvmf/hQHfgGiEo5A0AbRM88Cid4+Iu85c6IXKCEBuRACATQ7jq5aeGv3TuNQdqGti97LLLZni93h8BWF9TgEy5PKLr+nud3MlLFZwAGEe5f/OU9jNO7/miN6R9SgjA3yHQ1qNBiFo/mu4xf5JA9KREdEiCKDnAe+AZ42NnbX2xX1V04XDYOzIy8hkA/wYgqEqXySJKRF/q6OjY1qhdPrlwAmBcwZ4ts6ZPOKvj25pXvF3TBAKpB8mqywMuMX/zAK9BIEP84diRyAcWfnzfHrXxjbF58+a5QoivAbjArjZalLuJ6JM7duzY63QgKuEEwLiKfV+bd2bHVO8PhaYt8ngFgj0CgYoeJHOH+SdGCaMnDBgJQBC9NnSQPjTnE3/5leLgCrJ58+Z3phJBb73abFL2EdEnduzYcbfTgdgBJwDGdRAgXr1x8YUdXeI7JDDeG0gNFAfqvfR05Xp6nDJP8GokRoZOxj7x+/tf/n41A7y1Eg6H20ZGRq4EsAUA7zdZGXEA29vb27eGw+FRp4OxC04AjGt58iPwzVg7/1+D7f7/kiCvv01DqEcrMFDsrPmTQRgdGBvgNUZw1Yt/qn2AVwWf+tSnFng8nn8H8Lfgp/9LIQHcBiDc19f3gtPB2A0nAMb1vBCeN67rVP+1nhD+QQAIdqUeJMt8ep0z/9wB3niMfnLwGeOfVQ7wquKKK66YD+AzAP4OvKZQLroQ4vuapl111VVXveh0MPWCEwDTMOy5buHcSVO070MT67XUg2SBDij+FJdn/pQa4I3WcYBXFZdffvkcTdOuAPBhAAGn43GYGBF92+Px9G3btu0Vp4OpN5wAmIZj/w0L1nVM8vwAGuZ4fEBbtwe+NiXrTpd1VN4A72H5D3MufeEBBQHUlX/913+d5vP5PgXg/wPQ43Q8dWYAwHcSicRXrr322oNOB+MUnACYhuT2S+A5960L3t/W6fk6aWj3hZJ3BN6SA8WFKG3+RhwYHTAyA7zDA/HLfvfAS991YoBXJR//+McDoVDoHUT0QQDvAOArdU6DkgBwLxHdHIvFdl533XUxpwNyGk4ATEOz60MILt6w8HO+cdqVADR/m4ZQl4DHX8lHu7j5G/HkE7zxiAQEKDaMbfv+NPxFNwzwqubyyy+fqGna3wD4IIDVTsejiMeEEDd7PJ4fb9269Vjpw1sHTgBMU/DHK+dNmrZE+4Y/6Hk3APhCAv42Db42lNie0tr8SRLiI0B8NLUpC4B4VN518Fn5UTcO8NrBli1bFkopLxZCbEJy5dFGGS+IAvgtET2oadqd27dvL7iyaqvDCYBpKl4KnzK7fZ5/qy8o3gckP+CeoIAvIODxAx6vBuEhCCEgNAJJgIhAhoCRkDDiQCJOMGKUWZsuEcUPh3cnPjPvyy+96uCv5ijhcDg4PDx8jqZpm4hoE5J3B26ZSaQjWeU/KKV8sKOj4/fhcDjqdFCNACcApinZfeWiCeMXGJd427yfgAeL848giGILkErxXOxE7LqTe/135G7KwgDhcLgjEomslVKeSUSLhBALASyE/YPJAwCeJ6LnhRB7NE37v1Ao9JtwODxsc7tNCScApul59rKZ40Ondi4NdeqrvX7POo8mZpCQU4QQ3UR0QpB22JDyNT0uH40MeR+LvDT0zJJrDhx3Ou4GRFx55ZUTdV1fhGQyWAhgGpK7l6W/2pHsSkp/AUDM9DUC4Jjp6yCA5zVN26Np2vNbt249Cjs2YWYYhmEYhmEYhmEYhmEYhmEYhmEYhmEYhmEYhmEYhmEYhmEYhmEYhmEYhmEYhmEYhmEYhmEYhmEYhmEYhmEYhmEYhmEYhmEYhlHE/w9l0tK4dpwZAgAAAABJRU5ErkJggg==" vertex="1" parent="43">
                    <mxGeometry x="890" y="540" width="384" height="384" as="geometry"/>
                </mxCell>
                <mxCell id="33" style="edgeStyle=orthogonalEdgeStyle;rounded=0;orthogonalLoop=1;jettySize=auto;html=1;exitX=0.75;exitY=1;exitDx=0;exitDy=0;entryX=0.75;entryY=0;entryDx=0;entryDy=0;strokeWidth=8;strokeColor=#4D4D4D;" edge="1" parent="43" source="8" target="9">
                    <mxGeometry relative="1" as="geometry"/>
                </mxCell>
                <mxCell id="40" style="edgeStyle=orthogonalEdgeStyle;rounded=0;orthogonalLoop=1;jettySize=auto;html=1;strokeColor=#4D4D4D;strokeWidth=8;" edge="1" parent="43" source="10">
                    <mxGeometry relative="1" as="geometry">
                        <mxPoint x="2130" y="504" as="targetPoint"/>
                    </mxGeometry>
                </mxCell>
                <mxCell id="10" value="" style="aspect=fixed;html=1;points=[];align=center;image;fontSize=12;image=img/lib/mscae/SendGrid_Accounts.svg;" vertex="1" parent="43">
                    <mxGeometry x="1600" y="404" width="200" height="200" as="geometry"/>
                </mxCell>
                <mxCell id="35" style="edgeStyle=orthogonalEdgeStyle;rounded=0;orthogonalLoop=1;jettySize=auto;html=1;exitX=1;exitY=0.5;exitDx=0;exitDy=0;strokeWidth=8;strokeColor=#4D4D4D;" edge="1" parent="43" source="4" target="10">
                    <mxGeometry relative="1" as="geometry"/>
                </mxCell>
                <mxCell id="31" style="edgeStyle=orthogonalEdgeStyle;rounded=0;orthogonalLoop=1;jettySize=auto;html=1;exitX=1;exitY=0.5;exitDx=0;exitDy=0;strokeWidth=8;strokeColor=#4D4D4D;" edge="1" parent="43" source="19" target="9">
                    <mxGeometry relative="1" as="geometry"/>
                </mxCell>
                <mxCell id="19" value="" style="shape=image;verticalLabelPosition=bottom;labelBackgroundColor=#ffffff;verticalAlign=top;aspect=fixed;imageAspect=0;image=https://upload.wikimedia.org/wikipedia/commons/thumb/9/95/Vue.js_Logo_2.svg/1184px-Vue.js_Logo_2.svg.png;" vertex="1" parent="43">
                    <mxGeometry x="490" y="402.2499999999998" width="260" height="225.5" as="geometry"/>
                </mxCell>
                <mxCell id="26" value="" style="verticalLabelPosition=bottom;html=1;verticalAlign=top;align=center;strokeColor=none;fillColor=#00BEF2;shape=mxgraph.azure.user;" vertex="1" parent="43">
                    <mxGeometry x="2130" y="415" width="190" height="200" as="geometry"/>
                </mxCell>
                <mxCell id="27" value="" style="shape=mxgraph.signs.tech.mail;html=1;fillColor=#000000;strokeColor=none;verticalLabelPosition=bottom;verticalAlign=top;align=center;" vertex="1" parent="43">
                    <mxGeometry x="340" y="800" width="105.6" height="80" as="geometry"/>
                </mxCell>
                <mxCell id="30" style="edgeStyle=orthogonalEdgeStyle;rounded=0;orthogonalLoop=1;jettySize=auto;html=1;entryX=0;entryY=0.5;entryDx=0;entryDy=0;strokeWidth=8;strokeColor=#4D4D4D;" edge="1" parent="43" source="28" target="19">
                    <mxGeometry relative="1" as="geometry"/>
                </mxCell>
                <mxCell id="28" value="" style="pointerEvents=1;shadow=0;dashed=0;html=1;strokeColor=none;labelPosition=center;verticalLabelPosition=bottom;verticalAlign=top;align=center;fillColor=#505050;shape=mxgraph.mscae.intune.user_group" vertex="1" parent="43">
                    <mxGeometry y="430" width="229.74" height="170" as="geometry"/>
                </mxCell>
                <mxCell id="38" style="edgeStyle=orthogonalEdgeStyle;rounded=0;orthogonalLoop=1;jettySize=auto;html=1;strokeWidth=8;strokeColor=#4D4D4D;entryX=0.5;entryY=1;entryDx=0;entryDy=0;entryPerimeter=0;" edge="1" parent="43" source="10" target="28">
                    <mxGeometry relative="1" as="geometry">
                        <mxPoint x="510" y="710" as="targetPoint"/>
                        <Array as="points">
                            <mxPoint x="1650" y="980"/>
                            <mxPoint x="770" y="980"/>
                            <mxPoint x="770" y="911"/>
                            <mxPoint x="115" y="911"/>
                        </Array>
                    </mxGeometry>
                </mxCell>
                <mxCell id="42" value="" style="shape=mxgraph.signs.tech.mail;html=1;fillColor=#000000;strokeColor=none;verticalLabelPosition=bottom;verticalAlign=top;align=center;" vertex="1" parent="43">
                    <mxGeometry x="1890" y="390" width="105.6" height="80" as="geometry"/>
                </mxCell>
            </root>
        </mxGraphModel>
    </diagram>
</mxfile>